<?xml version="1.0" encoding="utf-8"?>
<!-- Generator: Adobe Illustrator 21.0.0, SVG Export Plug-In . SVG Version: 6.00 Build 0)  -->
<svg version="1.1" xmlns="http://www.w3.org/2000/svg" xmlns:xlink="http://www.w3.org/1999/xlink" x="0px" y="0px"
	 viewBox="0 0 1920 312" style="enable-background:new 0 0 1920 312;" xml:space="preserve">
<style type="text/css">
	.st0{fill:#9ADAEF;}
	.st1{fill:#37B34A;}
	.st2{fill:#245C2E;}
	.st3{fill:#FFFFFF;}
	.st4{fill:none;}
	.st5{fill:#D0D2D3;}
	.st6{fill:#A87C4F;}
	.st7{fill:#2B1E12;}
	.st8{fill:#4F3421;}
	.st9{fill:#C1B49A;}
	.st10{fill:none;stroke:#A87C4F;stroke-miterlimit:10;}
	.st11{fill:#BE838D;}
	.st12{fill:#231F20;}
	.st13{fill:#321114;}
	.st14{fill:url(#SVGID_1_);stroke:#3C2415;stroke-width:0.25;stroke-linecap:round;stroke-linejoin:round;}
	.st15{fill:url(#SVGID_2_);stroke:#3C2415;stroke-width:0.25;stroke-linecap:round;stroke-linejoin:round;}
	.st16{fill:url(#SVGID_3_);stroke:#3C2415;stroke-width:0.25;stroke-linecap:round;stroke-linejoin:round;}
	.st17{fill:url(#SVGID_4_);stroke:#3C2415;stroke-width:0.25;stroke-linecap:round;stroke-linejoin:round;}
	.st18{fill:url(#SVGID_5_);stroke:#3C2415;stroke-width:0.25;stroke-linecap:round;stroke-linejoin:round;}
	.st19{fill:url(#SVGID_6_);stroke:#3C2415;stroke-width:0.25;stroke-linecap:round;stroke-linejoin:round;}
	.st20{fill:url(#SVGID_7_);stroke:#3C2415;stroke-width:0.25;stroke-linecap:round;stroke-linejoin:round;}
	.st21{fill:url(#SVGID_8_);stroke:#3C2415;stroke-width:0.25;stroke-linecap:round;stroke-linejoin:round;}
	.st22{fill:url(#SVGID_9_);stroke:#3C2415;stroke-width:0.25;stroke-linecap:round;stroke-linejoin:round;}
	.st23{fill:url(#SVGID_10_);stroke:#3C2415;stroke-width:0.25;stroke-linecap:round;stroke-linejoin:round;}
	.st24{fill:url(#SVGID_11_);stroke:#3C2415;stroke-width:0.25;stroke-linecap:round;stroke-linejoin:round;}
	.st25{fill:url(#SVGID_12_);stroke:#3C2415;stroke-width:0.25;stroke-linecap:round;stroke-linejoin:round;}
	.st26{fill:url(#SVGID_13_);stroke:#3C2415;stroke-width:0.25;stroke-linecap:round;stroke-linejoin:round;}
	.st27{fill:url(#SVGID_14_);stroke:#3C2415;stroke-width:0.25;stroke-linecap:round;stroke-linejoin:round;}
	.st28{fill:url(#SVGID_15_);stroke:#3C2415;stroke-width:0.25;stroke-linecap:round;stroke-linejoin:round;}
</style>
<g id="Layer_1">
	<rect x="-9" class="st0" width="1930" height="253.6"/>
	<g>
		<path class="st1" d="M1792,203.8c-56.3-0.9-112-2.3-166.9-4c-141.6-4.4-277.8-10.7-416.1-16.3c-203.6-8.2-412.7-14.6-624.8-19.1
			c-58.7-1.3-118.1-2.4-177.9-2.3c-57.2,0.1-113.8,1.3-170.1,2.5c-48.9,1-97.9,2.1-146.8,3.1c-37.2,0.8-88,0.2-98.1,5.2
			c-3.5,1.7,21.6,23.8,3.6,23.8c1.8,0,3.6,0,5.5,0v116.4c0,0,1921,0,1921,0c0,0,0-49.5,0-52.7c0-13.9,0-27.9,0-41.8
			c0-3.5,13.6-8.6,4.3-11.9c-6.5-2.3-8.6-1.8-32.3-1.9c-17.4-0.1-34.8-0.2-52.1-0.4C1824.8,204.3,1808.4,204.1,1792,203.8z"/>
		<path class="st2" d="M1792,203.8l-114.5-2.7l-57.3-1.4l-57.3-1.9c-76.3-2.7-152.7-5.8-229-9c-76.3-3.2-152.6-6.3-229-9.1
			c-76.3-2.8-152.7-5.3-229-7.6c-76.4-2.3-152.7-4.3-229.1-6c-76.4-1.7-152.7-3.5-229.1-3.6c-76.4,0-152.7,2-229.1,3.6l-57.3,1.2
			l-28.6,0.6c-9.5,0.2-19.1,0.4-28.6,0.5c-19.1,0.3-38.2,0.4-57.3,1.4c-4.8,0.3-9.5,0.6-14.2,1.2c-2.4,0.3-4.7,0.6-7,1.1
			c-0.6,0.1-1.1,0.3-1.7,0.4c-0.5,0.2-1.1,0.3-1.6,0.6l-0.4,0.2c-0.1,0.1-0.3,0.1-0.3,0.1c0,0-0.1,0.2,0,0.4c0.1,0.5,0.4,1,0.7,1.5
			c2.5,4,5.6,7.7,8,11.9c0.6,1.1,1.1,2.2,1.5,3.3c0.4,1.2,0.6,2.5,0.1,3.8c-0.3,0.6-0.7,1.2-1.3,1.6c-0.5,0.4-1.1,0.6-1.8,0.8
			c-1.2,0.3-2.5,0.4-3.7,0.4l0-0.9l5.5,0l0.4,0l0,0.4l0,116.4l-0.5-0.5l1921,0.4l-0.1,0.1l0-61.3l0-30.6l0-1.9c0-0.3,0-0.6,0-1
			c0.1-0.3,0.2-0.6,0.4-0.9c0.7-1.1,1.7-1.9,2.7-2.7c1-0.8,2-1.6,2.9-2.5c0.4-0.5,0.9-0.9,1.2-1.5c0.3-0.5,0.5-1.2,0.2-1.8
			c-0.2-0.6-0.8-1-1.3-1.3c-0.5-0.3-1.1-0.6-1.7-0.8c-1.2-0.4-2.4-0.8-3.7-1.1c-2.5-0.6-5.1-0.7-7.6-0.8l-61.3-0.4
			c-10.2-0.1-20.4-0.2-30.6-0.4L1792,203.8z M1792,203.8l30.6,0.4c10.2,0.1,20.4,0.3,30.6,0.3l61.3,0.4c2.5,0.1,5.1,0.2,7.6,0.8
			c1.2,0.3,2.5,0.7,3.7,1.1c0.6,0.2,1.2,0.5,1.7,0.8c0.5,0.3,1.1,0.8,1.3,1.4c0.3,0.6,0.1,1.3-0.2,1.9c-0.3,0.6-0.7,1.1-1.2,1.5
			c-0.9,0.9-1.9,1.7-2.9,2.5c-1,0.8-2,1.6-2.7,2.7c-0.2,0.3-0.3,0.6-0.4,0.9c-0.1,0.3,0,0.6,0,0.9l0,1.9l0,30.6l0,61.3v0.1h-0.1
			l-1921,0.4l-0.5,0l0-0.5l0-116.4l0.4,0.4l-5.5,0l0-0.9c1.2,0,2.3-0.1,3.4-0.4c1.1-0.3,2.1-0.9,2.4-1.9c0.4-1,0.2-2.1-0.1-3.2
			c-0.3-1.1-0.8-2.2-1.4-3.2c-1.1-2.1-2.5-4-3.9-6c-1.4-2-2.8-3.8-4.1-5.9c-0.3-0.5-0.6-1.1-0.8-1.8c0-0.2-0.1-0.4,0-0.6
			c0-0.2,0.1-0.5,0.3-0.7c0.2-0.2,0.3-0.2,0.5-0.3l0.4-0.2c0.6-0.3,1.2-0.4,1.7-0.6c0.6-0.1,1.2-0.3,1.8-0.4
			c2.4-0.5,4.7-0.9,7.1-1.2c4.8-0.6,9.5-0.9,14.3-1.2c19.1-1,38.2-1,57.3-1.3c9.5-0.1,19.1-0.3,28.6-0.5l28.6-0.6l57.3-1.2
			c76.4-1.6,152.7-3.6,229.1-3.5c76.4,0.1,152.8,2,229.1,3.7c76.4,1.8,152.7,3.8,229.1,6.1c76.4,2.3,152.7,4.9,229,7.7
			c76.3,2.8,152.7,6,229,9.2c76.3,3.2,152.6,6.4,229,9.1l57.3,1.9l57.3,1.4L1792,203.8z"/>
	</g>
	<path class="st3" d="M1224.7,84.5c-0.2-2.5,0-4.9,0.9-7c4.4-10.5,22.5-11.7,27.1-12c7.3-0.5,20.7-1.4,27.1,7.5
		c4.6,6.5,4.8,17.2,0.9,24.2c-1.1,2-2.8,4-2.4,4.4c0.9,0.9,8.5-9.7,19.6-10.5c1.7-0.1,8.7-0.5,13.5,4.4c5.5,5.6,4.6,14.7,2,20.4
		c-4,8.5-13.1,14.5-22.2,14.3c-13.9-0.3-27.9-0.5-41.8-0.8c-13.9-0.3-27.9-0.5-41.8-0.8c-6.9-2.7-11.8-8.7-12-15.1
		c-0.4-9.8,9.9-17.7,19.6-18.1c5-0.2,9,1.8,9.9,2.3c6.6,3.5,9.2,10,9.7,9.7C1235.3,107.3,1225.6,95.3,1224.7,84.5z"/>
	<path class="st3" d="M598.3,35.8c-0.2-2.5,0-4.9,0.9-7c4.4-10.5,22.5-11.7,27.1-12c7.3-0.5,20.7-1.4,27.1,7.5
		c4.6,6.5,4.8,17.2,0.9,24.2c-1.1,2-2.8,4-2.4,4.4c0.9,0.9,8.5-9.7,19.6-10.5c1.7-0.1,8.7-0.5,13.5,4.4c5.5,5.6,4.6,14.7,2,20.4
		c-4,8.5-13.1,14.5-22.2,14.3c-13.9-0.3-27.9-0.5-41.8-0.8c-13.9-0.3-27.9-0.5-41.8-0.8c-6.9-2.7-11.8-8.7-12-15.1
		c-0.4-9.8,9.9-17.7,19.6-18.1c5-0.2,9,1.8,9.9,2.3c6.6,3.5,9.2,10,9.7,9.7C608.9,58.5,599.2,46.6,598.3,35.8z"/>
	<path class="st3" d="M757.4,98.1c-0.2-2.5,0-4.9,0.9-7c4.4-10.5,22.5-11.7,27.1-12c7.3-0.5,20.7-1.4,27.1,7.5
		c4.6,6.5,4.8,17.2,0.9,24.2c-1.1,2-2.8,4-2.4,4.4c0.9,0.9,8.5-9.7,19.6-10.5c1.7-0.1,8.7-0.5,13.5,4.4c5.5,5.6,4.6,14.7,2,20.4
		c-4,8.5-13.1,14.5-22.2,14.3c-13.9-0.3-27.9-0.5-41.8-0.8c-13.9-0.3-27.9-0.5-41.8-0.8c-6.9-2.7-11.8-8.7-12-15.1
		c-0.4-9.8,9.9-17.7,19.6-18.1c5-0.2,9,1.8,9.9,2.3c6.6,3.5,9.2,10,9.7,9.7C768,120.9,758.3,108.9,757.4,98.1z"/>
	<rect x="767.9" y="-129" class="st4" width="380.9" height="570.6"/>
	<g>
		<path class="st1" d="M675.7,244.6c0.7-1.9,1.3-3.8,1.3-5.8c0-2-0.7-4.1-2.3-5.3c2.2,2,4,4.6,5.3,7.3c1.6-4.7,4.8-8.8,8.9-11.4
			c-0.9,1.6-1.6,3.3-2.1,5.1c-0.5,1.7-0.7,3.8,0.7,4.8c0.7,0.5,1.6,0.6,2.5,0.5c2.5-0.4,4.3-2.7,4.9-5.2s0.3-5-0.1-7.5
			c0.5,2.2,1,4.5,1.5,6.7c1.1,4.7,2.7,10.1,7.2,11.8"/>
		<path class="st2" d="M675.7,244.6c0.6-1.9,1.2-3.8,1.2-5.8c0-1-0.2-2-0.6-2.8c-0.4-0.9-1-1.7-1.8-2.2l0.3-0.4
			c2.3,2,4.1,4.6,5.4,7.4l-0.7,0c0.4-1.2,0.9-2.3,1.5-3.5c0.6-1.1,1.3-2.2,2.1-3.2c1.5-2,3.4-3.7,5.5-5.1l1.6-1l-0.9,1.6
			c-0.6,1-1,2.1-1.5,3.2c-0.4,1.1-0.8,2.2-0.9,3.3c-0.2,1.1,0,2.2,0.7,2.8c0.4,0.3,0.8,0.5,1.4,0.5c0.3,0,0.5,0,0.8,0l0.4-0.1
			c0.1,0,0.2-0.1,0.4-0.1c1-0.4,1.9-1.1,2.5-2c0.3-0.4,0.6-0.9,0.8-1.4c0.2-0.5,0.4-1,0.5-1.6c0.2-1.1,0.3-2.3,0.2-3.4
			c-0.1-1.2-0.2-2.3-0.3-3.5l0.8-0.1l1.1,5.2c0.4,1.7,0.7,3.5,1.2,5.2c0.5,1.7,1.1,3.3,2.1,4.8c0.3,0.4,0.5,0.7,0.8,1.1
			c0.3,0.3,0.6,0.6,0.9,0.9c0.3,0.3,0.7,0.6,1.1,0.8c0.4,0.3,0.8,0.4,1.2,0.6c-0.4-0.2-0.8-0.3-1.2-0.6c-0.4-0.2-0.8-0.5-1.1-0.7
			c-0.3-0.3-0.7-0.6-1-0.9c-0.3-0.3-0.6-0.7-0.8-1c-1-1.5-1.8-3.1-2.3-4.8c-0.6-1.7-1-3.4-1.4-5.2l-1.2-5.2l0.8-0.1
			c0.4,2.3,0.7,4.8,0.2,7.2c-0.1,0.6-0.3,1.2-0.5,1.8c-0.2,0.6-0.6,1.1-0.9,1.6c-0.7,1-1.7,1.9-3,2.3c-0.2,0.1-0.3,0.1-0.5,0.2
			l-0.5,0.1c-0.3,0.1-0.7,0.1-1,0.1c-0.7,0-1.4-0.2-1.9-0.7c-0.6-0.4-0.9-1.1-1.1-1.8c-0.1-0.7-0.1-1.3-0.1-1.9
			c0.2-1.3,0.6-2.4,1-3.5c0.4-1.1,1-2.2,1.5-3.3l0.7,0.6c-2,1.3-3.8,3-5.3,4.9c-0.7,0.9-1.4,2-2,3c-0.3,0.5-0.6,1.1-0.8,1.6
			c-0.2,0.6-0.5,1.1-0.7,1.7l-0.3,0.9l-0.4-0.9c-1.2-2.7-2.9-5.2-5.1-7.3l0.3-0.4c0.9,0.6,1.5,1.5,1.8,2.5c0.4,1,0.5,2,0.5,3
			C677.1,240.9,676.4,242.8,675.7,244.6z"/>
	</g>
	<g>
		<path class="st1" d="M1287.7,283.9c0.7-1.9,1.3-3.8,1.3-5.8s-0.7-4.1-2.3-5.3c2.2,2,4,4.6,5.3,7.3c1.6-4.7,4.8-8.8,8.9-11.4
			c-0.9,1.6-1.6,3.3-2.1,5.1c-0.5,1.7-0.7,3.8,0.7,4.8c0.7,0.5,1.6,0.6,2.5,0.5c2.5-0.4,4.3-2.7,4.9-5.2c0.6-2.4,0.3-5-0.1-7.5
			c0.5,2.2,1,4.5,1.5,6.7c1.1,4.7,2.7,10.1,7.2,11.8"/>
		<path class="st2" d="M1287.7,283.9c0.6-1.9,1.2-3.8,1.2-5.8c0-1-0.2-2-0.6-2.8c-0.4-0.9-1-1.7-1.8-2.2l0.3-0.4
			c2.3,2,4.1,4.6,5.4,7.4l-0.7,0c0.4-1.2,0.9-2.3,1.5-3.5c0.6-1.1,1.3-2.2,2.1-3.2c1.5-2,3.4-3.7,5.5-5.1l1.6-1l-0.9,1.6
			c-0.6,1-1,2.1-1.5,3.2c-0.4,1.1-0.8,2.2-0.9,3.3c-0.2,1.1,0,2.2,0.7,2.8c0.4,0.3,0.8,0.5,1.4,0.5c0.3,0,0.5,0,0.8,0l0.4-0.1
			c0.1,0,0.2-0.1,0.4-0.1c1-0.4,1.9-1.1,2.5-2c0.3-0.4,0.6-0.9,0.8-1.4c0.2-0.5,0.4-1,0.5-1.6c0.2-1.1,0.3-2.3,0.2-3.4
			c-0.1-1.2-0.2-2.3-0.3-3.5l0.8-0.1l1.1,5.2c0.4,1.7,0.7,3.5,1.2,5.2c0.5,1.7,1.1,3.3,2.1,4.8c0.3,0.4,0.5,0.7,0.8,1.1
			c0.3,0.3,0.6,0.6,0.9,0.9c0.3,0.3,0.7,0.6,1.1,0.8c0.4,0.3,0.8,0.4,1.2,0.6c-0.4-0.2-0.8-0.3-1.2-0.6c-0.4-0.2-0.8-0.5-1.1-0.7
			c-0.3-0.3-0.7-0.6-1-0.9c-0.3-0.3-0.6-0.7-0.8-1c-1-1.5-1.8-3.1-2.3-4.8c-0.6-1.7-1-3.4-1.4-5.2l-1.2-5.2l0.8-0.1
			c0.4,2.3,0.7,4.8,0.2,7.2c-0.1,0.6-0.3,1.2-0.5,1.8c-0.2,0.6-0.6,1.1-0.9,1.6c-0.7,1-1.7,1.9-3,2.3c-0.2,0.1-0.3,0.1-0.5,0.2
			l-0.5,0.1c-0.3,0.1-0.7,0.1-1,0.1c-0.7,0-1.4-0.2-1.9-0.7c-0.6-0.4-0.9-1.1-1.1-1.8c-0.1-0.7-0.1-1.3-0.1-1.9
			c0.2-1.3,0.6-2.4,1-3.5c0.4-1.1,1-2.2,1.5-3.3l0.7,0.6c-2,1.3-3.8,3-5.3,4.9c-0.7,0.9-1.4,2-2,3c-0.3,0.5-0.6,1.1-0.8,1.6
			c-0.2,0.6-0.5,1.1-0.7,1.7l-0.3,0.9l-0.4-0.9c-1.2-2.7-2.9-5.2-5.1-7.3l0.3-0.4c0.9,0.6,1.5,1.5,1.8,2.5c0.4,1,0.5,2,0.5,3
			C1289.1,280.1,1288.4,282,1287.7,283.9z"/>
	</g>
	<g>
		<path class="st1" d="M798.7,200.4c-1.1-0.9-1.9-2.1-2.3-3.5c-0.6,1.2-1.6,2.1-2.9,2.6c-0.5-0.5-1-1-1.5-1.5
			c-0.8,0.9-2.2,1.4-3.4,1.1c-1.2-0.3-2.2-1.2-2.6-2.4c0,0.7-0.1,1.4-0.5,1.9s-1.1,1-1.7,0.7c-0.3-0.1-0.5-0.4-0.7-0.6
			c-1.4-1.8-2.5-3.9-3.1-6.1c0.2,1.5,0.4,3,0.1,4.5s-1.2,2.9-2.6,3.4"/>
		<path class="st2" d="M798.7,200.4c-1.1-0.9-1.9-2.1-2.4-3.4l0.2,0c-0.6,1.2-1.6,2.2-2.9,2.7l-0.1,0l-0.1-0.1l-1.5-1.5l0.3,0
			c-0.9,1-2.3,1.5-3.6,1.2c-1.3-0.3-2.4-1.3-2.8-2.6l0.5,0c0,0.5-0.1,1-0.2,1.5c-0.2,0.5-0.5,1-1.1,1.2c-0.3,0.1-0.6,0.2-0.9,0.1
			c-0.3,0-0.6-0.2-0.8-0.4c-0.4-0.4-0.6-0.8-0.9-1.2c-1.1-1.7-2-3.5-2.5-5.4l0.4-0.1c0.2,1.5,0.4,3,0.1,4.5
			c-0.2,0.7-0.5,1.5-0.9,2.1c-0.5,0.6-1.1,1.1-1.8,1.3c0.7-0.3,1.3-0.8,1.7-1.4c0.4-0.6,0.7-1.3,0.8-2c0.3-1.5,0-2.9-0.2-4.4
			l0.4-0.1c0.6,1.9,1.5,3.6,2.6,5.3c0.3,0.4,0.6,0.8,0.9,1.1c0.3,0.3,0.7,0.3,1.1,0.2c0.8-0.4,1-1.4,1-2.4l0.1-1.4l0.4,1.4
			c0.3,1.1,1.3,2,2.4,2.3c1.1,0.3,2.4-0.2,3.2-1l0.2-0.2l0.1,0.2l1.4,1.6l-0.2,0c1.2-0.4,2.2-1.4,2.8-2.5l0.1-0.2l0.1,0.3
			C796.9,198.3,797.6,199.5,798.7,200.4z"/>
	</g>
	<g>
		<path class="st1" d="M1226.2,228c-1.1-0.9-1.9-2.1-2.3-3.5c-0.6,1.2-1.6,2.1-2.9,2.6c-0.5-0.5-1-1-1.5-1.5
			c-0.8,0.9-2.2,1.4-3.4,1.1s-2.2-1.2-2.6-2.4c0,0.7-0.1,1.4-0.5,1.9c-0.4,0.6-1.1,1-1.7,0.7c-0.3-0.1-0.5-0.4-0.7-0.6
			c-1.4-1.8-2.5-3.9-3.1-6.1c0.2,1.5,0.4,3,0.1,4.5c-0.3,1.5-1.2,2.9-2.6,3.4"/>
		<path class="st2" d="M1226.2,228c-1.1-0.9-1.9-2.1-2.4-3.4l0.2,0c-0.6,1.2-1.6,2.2-2.9,2.7l-0.1,0l-0.1-0.1l-1.5-1.5l0.3,0
			c-0.9,1-2.3,1.5-3.6,1.2c-1.3-0.3-2.4-1.3-2.8-2.6l0.5,0c0,0.5-0.1,1-0.2,1.5c-0.2,0.5-0.5,1-1.1,1.2c-0.3,0.1-0.6,0.2-0.9,0.1
			c-0.3,0-0.6-0.2-0.8-0.4c-0.4-0.4-0.6-0.8-0.9-1.2c-1.1-1.7-2-3.5-2.5-5.4l0.4-0.1c0.2,1.5,0.4,3,0.1,4.5
			c-0.2,0.7-0.5,1.5-0.9,2.1c-0.5,0.6-1.1,1.1-1.8,1.3c0.7-0.3,1.3-0.8,1.7-1.4c0.4-0.6,0.7-1.3,0.8-2c0.3-1.5,0-2.9-0.2-4.4
			l0.4-0.1c0.6,1.9,1.5,3.6,2.6,5.3c0.3,0.4,0.6,0.8,0.9,1.1c0.3,0.3,0.7,0.3,1.1,0.2c0.8-0.4,1-1.4,1-2.4l0.1-1.4l0.4,1.4
			c0.3,1.1,1.3,2,2.4,2.3c1.1,0.3,2.4-0.2,3.2-1l0.2-0.2l0.1,0.2l1.4,1.6l-0.2,0c1.2-0.4,2.2-1.4,2.8-2.5l0.1-0.2l0.1,0.3
			C1224.4,225.8,1225.1,227,1226.2,228z"/>
	</g>
	<g>
		<path class="st1" d="M1096.8,260.2c-0.9-2.6,0.4-5.8,2.9-7c-1.5-0.3-3.2,0.2-4.3,1.2c0.2-3-0.1-6-1-8.9c0,3.2-0.9,6.4-2.7,9.2
			c-0.2-1.2-0.4-2.4-0.7-3.6c-0.4,2.8-2.1,5.3-4.5,6.6c-0.2-0.5-0.3-1-0.5-1.5c-0.1,2.2-2.3,3.5-4.3,4.5"/>
		<path class="st2" d="M1096.8,260.2c-0.1-0.3-0.2-0.6-0.3-1c-0.1-0.3-0.1-0.7-0.1-1c0-0.7,0.2-1.4,0.4-2.1c0.3-0.7,0.6-1.3,1.1-1.8
			c0.2-0.3,0.5-0.5,0.8-0.7c0.3-0.2,0.6-0.4,0.9-0.6l0.1,0.5c-1.4-0.3-3,0.2-4,1.2l-0.7,0.7l0-1c0.1-1.5,0-3-0.2-4.4
			c-0.2-1.5-0.5-2.9-1-4.3l0.9-0.1c0,1.7-0.2,3.3-0.7,4.9c-0.5,1.6-1.2,3.1-2,4.5l-0.6,1l-0.2-1.2l-0.6-3.6l0.9,0
			c-0.1,0.7-0.3,1.4-0.6,2.1c-0.3,0.7-0.6,1.3-1.1,1.9c-0.8,1.2-1.9,2.2-3.2,2.8l-0.3,0.2l-0.1-0.3l-0.5-1.5l0.5-0.1
			c0,0.3-0.1,0.6-0.2,0.9c-0.1,0.3-0.2,0.5-0.4,0.8c-0.3,0.5-0.7,0.9-1.1,1.2c-0.9,0.7-1.8,1.2-2.8,1.7c0.9-0.5,1.9-1.1,2.7-1.9
			c0.4-0.4,0.7-0.8,1-1.2c0.1-0.2,0.2-0.5,0.3-0.7c0.1-0.2,0.1-0.5,0.1-0.7l0.1-1.3l0.4,1.2l0.5,1.5l-0.4-0.2
			c1.2-0.7,2.1-1.6,2.9-2.7c0.4-0.6,0.7-1.2,0.9-1.8c0.2-0.6,0.4-1.3,0.5-1.9l0.3-2.7l0.5,2.7l0.7,3.6l-0.8-0.2
			c0.8-1.3,1.4-2.8,1.9-4.3c0.2-0.8,0.4-1.5,0.5-2.3c0.1-0.8,0.2-1.6,0.2-2.3l0-3.1l0.9,2.9c0.9,2.9,1.3,6,1,9.1l-0.6-0.3
			c1.2-1.1,3-1.6,4.6-1.2l0.8,0.2l-0.7,0.3c-0.3,0.1-0.6,0.3-0.8,0.5c-0.3,0.2-0.5,0.4-0.7,0.6c-0.5,0.5-0.8,1-1.1,1.6
			c-0.3,0.6-0.5,1.3-0.5,1.9c0,0.3,0,0.7,0,1C1096.6,259.6,1096.7,259.9,1096.8,260.2z"/>
	</g>
	<g>
		<path class="st1" d="M937.1,287.6c-1.9-1.6-3.3-3.8-4-6.2c-1,2.1-2.9,3.8-5.1,4.6c-0.9-0.9-1.7-1.8-2.6-2.7c-1.4,1.7-3.8,2.4-6,2
			c-2.1-0.5-4-2.2-4.6-4.3c-0.1,1.2-0.2,2.4-0.8,3.5c-0.6,1-2,1.7-3.1,1.2c-0.5-0.2-0.9-0.7-1.2-1.1c-2.5-3.3-4.4-7-5.6-10.9
			c0.4,2.6,0.8,5.3,0.3,7.9c-0.5,2.6-2.1,5.1-4.6,6.1"/>
		<path class="st2" d="M937.1,287.6c-1.9-1.6-3.4-3.7-4.1-6.1l0.2,0c-1,2.1-2.9,3.9-5.1,4.8l-0.1,0l-0.1-0.1l-2.6-2.7l0.3,0
			c-1.5,1.7-3.9,2.5-6.2,2c-0.3-0.1-0.5-0.1-0.8-0.2c-0.3-0.1-0.5-0.2-0.8-0.4c-0.5-0.3-1-0.6-1.4-1c-0.8-0.8-1.5-1.8-1.8-2.9l0.5,0
			c-0.1,0.9-0.1,1.8-0.4,2.7c-0.1,0.4-0.4,0.9-0.7,1.2c-0.3,0.4-0.7,0.7-1.1,0.9c-0.4,0.2-0.9,0.3-1.4,0.2c-0.5-0.1-1-0.3-1.3-0.7
			c-0.3-0.3-0.6-0.7-0.9-1.1c-0.3-0.4-0.5-0.7-0.8-1.1c-2-2.9-3.5-6.2-4.5-9.6l0.4-0.1c0.4,2.6,0.7,5.3,0.2,8
			c-0.3,1.3-0.8,2.6-1.6,3.6c-0.4,0.5-0.9,1-1.4,1.4c-0.3,0.2-0.5,0.4-0.8,0.6c-0.3,0.2-0.6,0.3-0.9,0.4c0.3-0.1,0.6-0.3,0.9-0.4
			c0.3-0.2,0.6-0.4,0.8-0.6c0.5-0.4,0.9-0.9,1.3-1.5c0.7-1.1,1.2-2.3,1.5-3.6c0.5-2.6,0.1-5.3-0.3-7.9l0.4-0.1
			c1.1,3.3,2.6,6.5,4.6,9.4c0.2,0.4,0.5,0.7,0.8,1.1c0.3,0.4,0.5,0.7,0.8,1c0.3,0.3,0.6,0.5,1,0.5c0.4,0.1,0.8,0,1.1-0.2
			c0.4-0.2,0.7-0.4,0.9-0.7c0.3-0.3,0.4-0.7,0.6-1.1c0.3-0.8,0.3-1.7,0.4-2.5l0.1-1.4l0.4,1.3c0.3,1,0.9,1.9,1.6,2.7
			c0.4,0.4,0.8,0.7,1.3,0.9c0.2,0.1,0.5,0.2,0.7,0.3c0.2,0.1,0.5,0.2,0.8,0.2c2.1,0.5,4.4-0.3,5.8-1.9l0.1-0.2l0.1,0.2l2.6,2.8
			l-0.2,0c2.2-0.8,4-2.5,5.1-4.5l0.1-0.2l0.1,0.3C933.9,283.8,935.2,286,937.1,287.6z"/>
	</g>
	<g>
		<path class="st1" d="M197.8,169.3c0.7-1.9,1.3-3.8,1.3-5.8c0-2-0.7-4.1-2.3-5.3c2.2,2,4,4.6,5.3,7.3c1.6-4.7,4.8-8.8,8.9-11.4
			c-0.9,1.6-1.6,3.3-2.1,5.1c-0.5,1.7-0.7,3.8,0.7,4.8c0.7,0.5,1.6,0.6,2.5,0.5c2.5-0.4,4.3-2.7,4.9-5.2c0.6-2.4,0.3-5-0.1-7.5
			c0.5,2.2,1,4.5,1.5,6.7c1.1,4.7,2.7,10.1,7.2,11.8"/>
		<path class="st2" d="M197.8,169.3c0.6-1.9,1.2-3.8,1.2-5.8c0-1-0.2-2-0.6-2.8c-0.4-0.9-1-1.7-1.8-2.2l0.3-0.4
			c2.3,2,4.1,4.6,5.4,7.4l-0.7,0c0.4-1.2,0.9-2.3,1.5-3.5c0.6-1.1,1.3-2.2,2.1-3.2c1.5-2,3.4-3.7,5.5-5.1l1.6-1l-0.9,1.6
			c-0.6,1-1,2.1-1.5,3.2c-0.4,1.1-0.8,2.2-0.9,3.3c-0.2,1.1,0,2.2,0.7,2.8c0.4,0.3,0.8,0.5,1.4,0.5c0.3,0,0.5,0,0.8,0l0.4-0.1
			c0.1,0,0.2-0.1,0.4-0.1c1-0.4,1.9-1.1,2.5-2c0.3-0.4,0.6-0.9,0.8-1.4c0.2-0.5,0.4-1,0.5-1.6c0.2-1.1,0.3-2.3,0.2-3.4
			c-0.1-1.2-0.2-2.3-0.3-3.5l0.8-0.1l1.1,5.2c0.4,1.7,0.7,3.5,1.2,5.2c0.5,1.7,1.1,3.3,2.1,4.8c0.3,0.4,0.5,0.7,0.8,1.1
			c0.3,0.3,0.6,0.6,0.9,0.9c0.3,0.3,0.7,0.6,1.1,0.8c0.4,0.3,0.8,0.4,1.2,0.6c-0.4-0.2-0.8-0.3-1.2-0.6c-0.4-0.2-0.8-0.5-1.1-0.7
			c-0.3-0.3-0.7-0.6-1-0.9c-0.3-0.3-0.6-0.7-0.8-1c-1-1.5-1.8-3.1-2.3-4.8c-0.6-1.7-1-3.4-1.4-5.2l-1.2-5.2l0.8-0.1
			c0.4,2.3,0.7,4.8,0.2,7.2c-0.1,0.6-0.3,1.2-0.5,1.8c-0.2,0.6-0.6,1.1-0.9,1.6c-0.7,1-1.7,1.9-3,2.3c-0.2,0.1-0.3,0.1-0.5,0.2
			l-0.5,0.1c-0.3,0.1-0.7,0.1-1,0.1c-0.7,0-1.4-0.2-1.9-0.7c-0.6-0.4-0.9-1.1-1.1-1.8c-0.1-0.7-0.1-1.3-0.1-1.9
			c0.2-1.3,0.6-2.4,1-3.5c0.4-1.1,1-2.2,1.5-3.3l0.7,0.6c-2,1.3-3.8,3-5.3,4.9c-0.7,0.9-1.4,2-2,3c-0.3,0.5-0.6,1.1-0.8,1.6
			c-0.2,0.6-0.5,1.1-0.7,1.7l-0.3,0.9l-0.4-0.9c-1.2-2.7-2.9-5.2-5.1-7.3l0.3-0.4c0.9,0.6,1.5,1.5,1.8,2.5c0.4,1,0.5,2,0.5,3
			C199.2,165.5,198.5,167.4,197.8,169.3z"/>
	</g>
	<g>
		<path class="st1" d="M1707.1,252c0.7-1.9,1.3-3.8,1.3-5.8s-0.7-4.1-2.3-5.3c2.2,2,4,4.6,5.3,7.3c1.6-4.7,4.8-8.8,8.9-11.4
			c-0.9,1.6-1.6,3.3-2.1,5.1c-0.5,1.7-0.7,3.8,0.7,4.8c0.7,0.5,1.6,0.6,2.5,0.5c2.5-0.4,4.3-2.7,4.9-5.2s0.3-5-0.1-7.5
			c0.5,2.2,1,4.5,1.5,6.7c1.1,4.7,2.7,10.1,7.2,11.8"/>
		<path class="st2" d="M1707.1,252c0.6-1.9,1.2-3.8,1.2-5.8c0-1-0.2-2-0.6-2.8c-0.4-0.9-1-1.7-1.8-2.2l0.3-0.4
			c2.3,2,4.1,4.6,5.4,7.4l-0.7,0c0.4-1.2,0.9-2.3,1.5-3.5c0.6-1.1,1.3-2.2,2.1-3.2c1.5-2,3.4-3.7,5.5-5.1l1.6-1l-0.9,1.6
			c-0.6,1-1,2.1-1.5,3.2c-0.4,1.1-0.8,2.2-0.9,3.3c-0.2,1.1,0,2.2,0.7,2.8c0.4,0.3,0.8,0.5,1.4,0.5c0.3,0,0.5,0,0.8,0l0.4-0.1
			c0.1,0,0.2-0.1,0.4-0.1c1-0.4,1.9-1.1,2.5-2c0.3-0.4,0.6-0.9,0.8-1.4c0.2-0.5,0.4-1,0.5-1.6c0.2-1.1,0.3-2.3,0.2-3.4
			c-0.1-1.2-0.2-2.3-0.3-3.5l0.8-0.1l1.1,5.2c0.4,1.7,0.7,3.5,1.2,5.2c0.5,1.7,1.1,3.3,2.1,4.8c0.3,0.4,0.5,0.7,0.8,1.1
			c0.3,0.3,0.6,0.6,0.9,0.9c0.3,0.3,0.7,0.6,1.1,0.8c0.4,0.3,0.8,0.4,1.2,0.6c-0.4-0.2-0.8-0.3-1.2-0.6c-0.4-0.2-0.8-0.5-1.1-0.7
			c-0.3-0.3-0.7-0.6-1-0.9c-0.3-0.3-0.6-0.7-0.8-1c-1-1.5-1.8-3.1-2.3-4.8c-0.6-1.7-1-3.4-1.4-5.2l-1.2-5.2l0.8-0.1
			c0.4,2.3,0.7,4.8,0.2,7.2c-0.1,0.6-0.3,1.2-0.5,1.8c-0.2,0.6-0.6,1.1-0.9,1.6c-0.7,1-1.7,1.9-3,2.3c-0.2,0.1-0.3,0.1-0.5,0.2
			l-0.5,0.1c-0.3,0.1-0.7,0.1-1,0.1c-0.7,0-1.4-0.2-1.9-0.7c-0.6-0.4-0.9-1.1-1.1-1.8c-0.1-0.7-0.1-1.3-0.1-1.9
			c0.2-1.3,0.6-2.4,1-3.5c0.4-1.1,1-2.2,1.5-3.3l0.7,0.6c-2,1.3-3.8,3-5.3,4.9c-0.7,0.9-1.4,2-2,3c-0.3,0.5-0.6,1.1-0.8,1.6
			c-0.2,0.6-0.5,1.1-0.7,1.7l-0.3,0.9l-0.4-0.9c-1.2-2.7-2.9-5.2-5.1-7.3l0.3-0.4c0.9,0.6,1.5,1.5,1.8,2.5c0.4,1,0.5,2,0.5,3
			C1708.5,248.2,1707.8,250.1,1707.1,252z"/>
	</g>
	<g>
		<path class="st1" d="M470.9,225.1c-1.1-0.9-1.9-2.1-2.3-3.5c-0.6,1.2-1.6,2.1-2.9,2.6c-0.5-0.5-1-1-1.5-1.5
			c-0.8,0.9-2.2,1.4-3.4,1.1s-2.2-1.2-2.6-2.4c0,0.7-0.1,1.4-0.5,1.9c-0.4,0.6-1.1,1-1.7,0.7c-0.3-0.1-0.5-0.4-0.7-0.6
			c-1.4-1.8-2.5-3.9-3.1-6.1c0.2,1.5,0.4,3,0.1,4.5s-1.2,2.9-2.6,3.4"/>
		<path class="st2" d="M470.9,225.1c-1.1-0.9-1.9-2.1-2.4-3.4l0.2,0c-0.6,1.2-1.6,2.2-2.9,2.7l-0.1,0l-0.1-0.1l-1.5-1.5l0.3,0
			c-0.9,1-2.3,1.5-3.6,1.2c-1.3-0.3-2.4-1.3-2.8-2.6l0.5,0c0,0.5-0.1,1-0.2,1.5c-0.2,0.5-0.5,1-1.1,1.2c-0.3,0.1-0.6,0.2-0.9,0.1
			c-0.3,0-0.6-0.2-0.8-0.4c-0.4-0.4-0.6-0.8-0.9-1.2c-1.1-1.7-2-3.5-2.5-5.4l0.4-0.1c0.2,1.5,0.4,3,0.1,4.5
			c-0.2,0.7-0.5,1.5-0.9,2.1c-0.5,0.6-1.1,1.1-1.8,1.3c0.7-0.3,1.3-0.8,1.7-1.4c0.4-0.6,0.7-1.3,0.8-2c0.3-1.5,0-2.9-0.2-4.4
			l0.4-0.1c0.6,1.9,1.5,3.6,2.6,5.3c0.3,0.4,0.6,0.8,0.9,1.1c0.3,0.3,0.7,0.3,1.1,0.2c0.8-0.4,1-1.4,1-2.4l0.1-1.4l0.4,1.4
			c0.3,1.1,1.3,2,2.4,2.3c1.1,0.3,2.4-0.2,3.2-1l0.2-0.2l0.1,0.2l1.4,1.6l-0.2,0c1.2-0.4,2.2-1.4,2.8-2.5l0.1-0.2l0.1,0.3
			C469.1,222.9,469.9,224.1,470.9,225.1z"/>
	</g>
	<g>
		<path class="st1" d="M1522.2,196.4c-1.1-0.9-1.9-2.1-2.3-3.5c-0.6,1.2-1.6,2.1-2.9,2.6c-0.5-0.5-1-1-1.5-1.5
			c-0.8,0.9-2.2,1.4-3.4,1.1c-1.2-0.3-2.2-1.2-2.6-2.4c0,0.7-0.1,1.4-0.5,1.9s-1.1,1-1.7,0.7c-0.3-0.1-0.5-0.4-0.7-0.6
			c-1.4-1.8-2.5-3.9-3.1-6.1c0.2,1.5,0.4,3,0.1,4.5c-0.3,1.5-1.2,2.9-2.6,3.4"/>
		<path class="st2" d="M1522.2,196.4c-1.1-0.9-1.9-2.1-2.4-3.4l0.2,0c-0.6,1.2-1.6,2.2-2.9,2.7l-0.1,0l-0.1-0.1l-1.5-1.5l0.3,0
			c-0.9,1-2.3,1.5-3.6,1.2c-1.3-0.3-2.4-1.3-2.8-2.6l0.5,0c0,0.5-0.1,1-0.2,1.5c-0.2,0.5-0.5,1-1.1,1.2c-0.3,0.1-0.6,0.2-0.9,0.1
			c-0.3,0-0.6-0.2-0.8-0.4c-0.4-0.4-0.6-0.8-0.9-1.2c-1.1-1.7-2-3.5-2.5-5.4l0.4-0.1c0.2,1.5,0.4,3,0.1,4.5
			c-0.2,0.7-0.5,1.5-0.9,2.1c-0.5,0.6-1.1,1.1-1.8,1.3c0.7-0.3,1.3-0.8,1.7-1.4c0.4-0.6,0.7-1.3,0.8-2c0.3-1.5,0-2.9-0.2-4.4
			l0.4-0.1c0.6,1.9,1.5,3.6,2.6,5.3c0.3,0.4,0.6,0.8,0.9,1.1c0.3,0.3,0.7,0.3,1.1,0.2c0.8-0.4,1-1.4,1-2.4l0.1-1.4l0.4,1.4
			c0.3,1.1,1.3,2,2.4,2.3c1.1,0.3,2.4-0.2,3.2-1l0.2-0.2l0.1,0.2l1.4,1.6l-0.2,0c1.2-0.4,2.2-1.4,2.8-2.5l0.1-0.2l0.1,0.3
			C1520.4,194.3,1521.1,195.5,1522.2,196.4z"/>
	</g>
	<g>
		<path class="st1" d="M1558.3,280.7c-0.9-2.6,0.4-5.8,2.9-7c-1.5-0.3-3.2,0.2-4.3,1.2c0.2-3-0.1-6-1-8.9c0,3.2-0.9,6.4-2.7,9.2
			c-0.2-1.2-0.4-2.4-0.7-3.6c-0.4,2.8-2.1,5.3-4.5,6.6c-0.2-0.5-0.3-1-0.5-1.5c-0.1,2.2-2.3,3.5-4.3,4.5"/>
		<path class="st2" d="M1558.3,280.7c-0.1-0.3-0.2-0.6-0.3-1c-0.1-0.3-0.1-0.7-0.1-1c0-0.7,0.2-1.4,0.4-2.1c0.3-0.7,0.6-1.3,1.1-1.8
			c0.2-0.3,0.5-0.5,0.8-0.7c0.3-0.2,0.6-0.4,0.9-0.6l0.1,0.5c-1.4-0.3-3,0.2-4,1.2l-0.7,0.7l0-1c0.1-1.5,0-3-0.2-4.4
			c-0.2-1.5-0.5-2.9-1-4.3l0.9-0.1c0,1.7-0.2,3.3-0.7,4.9c-0.5,1.6-1.2,3.1-2,4.5l-0.6,1l-0.2-1.2l-0.6-3.6l0.9,0
			c-0.1,0.7-0.3,1.4-0.6,2.1c-0.3,0.7-0.6,1.3-1.1,1.9c-0.8,1.2-1.9,2.2-3.2,2.8l-0.3,0.2l-0.1-0.3l-0.5-1.5l0.5-0.1
			c0,0.3-0.1,0.6-0.2,0.9c-0.1,0.3-0.2,0.5-0.4,0.8c-0.3,0.5-0.7,0.9-1.1,1.2c-0.9,0.7-1.8,1.2-2.8,1.7c0.9-0.5,1.9-1.1,2.7-1.9
			c0.4-0.4,0.7-0.8,1-1.2c0.1-0.2,0.2-0.5,0.3-0.7c0.1-0.2,0.1-0.5,0.1-0.7l0.1-1.3l0.4,1.2l0.5,1.5l-0.4-0.2
			c1.2-0.7,2.1-1.6,2.9-2.7c0.4-0.6,0.7-1.2,0.9-1.8c0.2-0.6,0.4-1.3,0.5-1.9l0.3-2.7l0.5,2.7l0.7,3.6l-0.8-0.2
			c0.8-1.3,1.4-2.8,1.9-4.3c0.2-0.8,0.4-1.5,0.5-2.3c0.1-0.8,0.2-1.6,0.2-2.3l0-3.1l0.9,2.9c0.9,2.9,1.3,6,1,9.1l-0.6-0.3
			c1.2-1.1,3-1.6,4.6-1.2l0.8,0.2l-0.7,0.3c-0.3,0.1-0.6,0.3-0.8,0.5c-0.3,0.2-0.5,0.4-0.7,0.6c-0.5,0.5-0.8,1-1.1,1.6
			c-0.3,0.6-0.5,1.3-0.5,1.9c0,0.3,0,0.7,0,1C1558.1,280,1558.2,280.3,1558.3,280.7z"/>
	</g>
	<g>
		<path class="st1" d="M606.3,287.6c-1.9-1.6-3.3-3.8-4-6.2c-1,2.1-2.9,3.8-5.1,4.6c-0.9-0.9-1.7-1.8-2.6-2.7c-1.4,1.7-3.8,2.4-6,2
			c-2.1-0.5-4-2.2-4.6-4.3c-0.1,1.2-0.2,2.4-0.8,3.5c-0.6,1-2,1.7-3.1,1.2c-0.5-0.2-0.9-0.7-1.2-1.1c-2.5-3.3-4.4-7-5.6-10.9
			c0.4,2.6,0.8,5.3,0.3,7.9c-0.5,2.6-2.1,5.1-4.6,6.1"/>
		<path class="st2" d="M606.3,287.6c-1.9-1.6-3.4-3.7-4.1-6.1l0.2,0c-1,2.1-2.9,3.9-5.1,4.8l-0.1,0l-0.1-0.1l-2.6-2.7l0.3,0
			c-1.5,1.7-3.9,2.5-6.2,2c-0.3-0.1-0.5-0.1-0.8-0.2c-0.3-0.1-0.5-0.2-0.8-0.4c-0.5-0.3-1-0.6-1.4-1c-0.8-0.8-1.5-1.8-1.8-2.9l0.5,0
			c-0.1,0.9-0.1,1.8-0.4,2.7c-0.1,0.4-0.4,0.9-0.7,1.2c-0.3,0.4-0.7,0.7-1.1,0.9c-0.4,0.2-0.9,0.3-1.4,0.2c-0.5-0.1-1-0.3-1.3-0.7
			c-0.3-0.3-0.6-0.7-0.9-1.1c-0.3-0.4-0.5-0.7-0.8-1.1c-2-2.9-3.5-6.2-4.5-9.6l0.4-0.1c0.4,2.6,0.7,5.3,0.2,8
			c-0.3,1.3-0.8,2.6-1.6,3.6c-0.4,0.5-0.9,1-1.4,1.4c-0.3,0.2-0.5,0.4-0.8,0.6c-0.3,0.2-0.6,0.3-0.9,0.4c0.3-0.1,0.6-0.3,0.9-0.4
			c0.3-0.2,0.6-0.4,0.8-0.6c0.5-0.4,0.9-0.9,1.3-1.5c0.7-1.1,1.2-2.3,1.5-3.6c0.5-2.6,0.1-5.3-0.3-7.9l0.4-0.1
			c1.1,3.3,2.6,6.5,4.6,9.4c0.2,0.4,0.5,0.7,0.8,1.1c0.3,0.4,0.5,0.7,0.8,1c0.3,0.3,0.6,0.5,1,0.5c0.4,0.1,0.8,0,1.1-0.2
			c0.4-0.2,0.7-0.4,0.9-0.7c0.3-0.3,0.4-0.7,0.6-1.1c0.3-0.8,0.3-1.7,0.4-2.5l0.1-1.4l0.4,1.3c0.3,1,0.9,1.9,1.6,2.7
			c0.4,0.4,0.8,0.7,1.3,0.9c0.2,0.1,0.5,0.2,0.7,0.3c0.2,0.1,0.5,0.2,0.8,0.2c2.1,0.5,4.4-0.3,5.8-1.9l0.1-0.2l0.1,0.2l2.6,2.8
			l-0.2,0c2.2-0.8,4-2.5,5.1-4.5l0.1-0.2l0.1,0.3C603.1,283.8,604.4,286,606.3,287.6z"/>
	</g>
	<g>
		<path class="st3" d="M922.3,81.5c-0.1-1.6,0-3.2,0.6-4.6c2.9-6.8,14.7-7.7,17.7-7.9c4.8-0.3,13.5-0.9,17.7,4.9
			c3,4.3,3.1,11.2,0.6,15.8c-0.7,1.3-1.8,2.6-1.6,2.9c0.6,0.6,5.5-6.3,12.8-6.9c1.1-0.1,5.7-0.3,8.8,2.9c3.6,3.7,3,9.6,1.3,13.3
			c-2.6,5.5-8.5,9.5-14.5,9.4c-9.1-0.2-18.2-0.3-27.3-0.5c-9.1-0.2-18.2-0.3-27.3-0.5c-4.5-1.8-7.7-5.7-7.9-9.8
			c-0.3-6.4,6.4-11.6,12.8-11.8c3.2-0.1,5.8,1.2,6.5,1.5c4.3,2.3,6,6.5,6.3,6.3C929.3,96.3,922.9,88.5,922.3,81.5z"/>
		<path class="st5" d="M960.5,91.1c-0.4,0.7-0.8,1.5-1.2,2.2c-1.4,2.2-2.8,4.4-4.9,6.1c-1,0.8-2.5,1.5-3.7,1.7c0.2-1,1.2-2,1.8-2.8
			c0.6-1,1.2-2.1,1.8-3.2c1.2-2.4,2-5,2.6-7.6c0.3-1.3,0.5-2.6,0.7-4c0.2-1.2,0.4-2.5,0.4-3.7c0-1.1-0.2-2.2-0.6-3.3
			c-0.4-1.1-0.9-2.1-1.6-3c-0.3-0.5-0.7-0.9-1.1-1.3c-0.3-0.3-0.6-0.6-0.8-0.9c3,0,6.2,3.6,7.3,6.1c0.5,1,0.8,2.2,1.1,3.3
			c0.4,1.6,0.3,3.2,0.1,4.8C962.1,87.4,961.4,89.3,960.5,91.1z"/>
	</g>
	<g>
		<path class="st3" d="M1097.8,137.2c0.2-1.8,0-3.6-0.7-5.3c-3.3-7.8-16.9-8.8-20.3-9c-5.5-0.4-15.5-1.1-20.3,5.6
			c-3.5,4.9-3.6,12.9-0.7,18.1c0.9,1.5,2.1,3,1.8,3.3c-0.7,0.7-6.3-7.2-14.6-7.9c-1.2-0.1-6.5-0.3-10.1,3.3
			c-4.1,4.2-3.5,11-1.5,15.3c3,6.4,9.8,10.8,16.6,10.7c10.4-0.2,20.8-0.4,31.3-0.6c10.4-0.2,20.8-0.4,31.3-0.6c5.2-2,8.8-6.5,9-11.3
			c0.3-7.3-7.4-13.3-14.6-13.5c-3.7-0.1-6.7,1.4-7.4,1.7c-4.9,2.6-6.9,7.4-7.2,7.3C1089.9,154.2,1097.1,145.3,1097.8,137.2z"/>
		<path class="st5" d="M1054.6,145.3c0.4,0.8,0.8,1.5,1.3,2.2c1.4,2.3,2.9,4.6,5,6.3c1,0.9,2.5,1.6,3.8,1.8c-0.2-1.1-1.3-2-1.8-2.9
			c-0.7-1.1-1.3-2.2-1.8-3.3c-1.2-2.5-2.1-5.2-2.7-7.9c-0.3-1.4-0.6-2.7-0.7-4.1c-0.2-1.3-0.4-2.6-0.4-3.9c0-1.1,0.3-2.3,0.6-3.4
			c0.4-1.1,1-2.2,1.7-3.1c0.3-0.5,0.7-0.9,1.1-1.3c0.3-0.3,0.6-0.6,0.9-1c-3.1,0-6.4,3.7-7.6,6.3c-0.5,1.1-0.9,2.3-1.1,3.5
			c-0.4,1.6-0.3,3.3-0.1,5C1052.9,141.5,1053.6,143.5,1054.6,145.3z"/>
	</g>
	<path class="st3" d="M1530.4,35.8c-0.2-2.5,0-4.9,0.9-7c4.4-10.5,22.5-11.7,27.1-12c7.3-0.5,20.7-1.4,27.1,7.5
		c4.6,6.5,4.8,17.2,0.9,24.2c-1.1,2-2.8,4-2.4,4.4c0.9,0.9,8.5-9.7,19.6-10.5c1.7-0.1,8.7-0.5,13.5,4.4c5.5,5.6,4.6,14.7,2,20.4
		c-4,8.5-13.1,14.5-22.2,14.3c-13.9-0.3-27.9-0.5-41.8-0.8c-13.9-0.3-27.9-0.5-41.8-0.8c-6.9-2.7-11.8-8.7-12-15.1
		c-0.4-9.8,9.9-17.7,19.6-18.1c5-0.2,9,1.8,9.9,2.3c6.6,3.5,9.2,10,9.7,9.7C1541,58.5,1531.3,46.6,1530.4,35.8z"/>
	<path class="st3" d="M322,35.8c-0.2-2.5,0-4.9,0.9-7c4.4-10.5,22.5-11.7,27.1-12c7.3-0.5,20.7-1.4,27.1,7.5
		c4.6,6.5,4.8,17.2,0.9,24.2c-1.1,2-2.8,4-2.4,4.4c0.9,0.9,8.5-9.7,19.6-10.5c1.7-0.1,8.7-0.5,13.5,4.4c5.5,5.6,4.6,14.7,2,20.4
		c-4,8.5-13.1,14.5-22.2,14.3c-13.9-0.3-27.9-0.5-41.8-0.8c-13.9-0.3-27.9-0.5-41.8-0.8c-6.9-2.7-11.8-8.7-12-15.1
		c-0.4-9.8,9.9-17.7,19.6-18.1c5-0.2,9,1.8,9.9,2.3c6.6,3.5,9.2,10,9.7,9.7C332.6,58.5,323,46.6,322,35.8z"/>
	<rect x="785.6" y="352.5" class="st4" width="380.9" height="570.6"/>
	<g>
		<path class="st3" d="M137.6,81.5c-0.1-1.6,0-3.2,0.6-4.6c2.9-6.8,14.7-7.7,17.7-7.9c4.8-0.3,13.5-0.9,17.7,4.9
			c3,4.3,3.1,11.2,0.6,15.8c-0.7,1.3-1.8,2.6-1.6,2.9c0.6,0.6,5.5-6.3,12.8-6.9c1.1-0.1,5.7-0.3,8.8,2.9c3.6,3.7,3,9.6,1.3,13.3
			c-2.6,5.5-8.5,9.5-14.5,9.4c-9.1-0.2-18.2-0.3-27.3-0.5c-9.1-0.2-18.2-0.3-27.3-0.5c-4.5-1.8-7.7-5.7-7.9-9.8
			c-0.3-6.4,6.4-11.6,12.8-11.8c3.2-0.1,5.8,1.2,6.5,1.5c4.3,2.3,6,6.5,6.3,6.3C144.5,96.3,138.2,88.5,137.6,81.5z"/>
		<path class="st5" d="M175.8,91.1c-0.4,0.7-0.8,1.5-1.2,2.2c-1.4,2.2-2.8,4.4-4.9,6.1c-1,0.8-2.5,1.5-3.7,1.7c0.2-1,1.2-2,1.8-2.8
			c0.6-1,1.2-2.1,1.8-3.2c1.2-2.4,2-5,2.6-7.6c0.3-1.3,0.5-2.6,0.7-4c0.2-1.2,0.4-2.5,0.4-3.7c0-1.1-0.2-2.2-0.6-3.3
			c-0.4-1.1-0.9-2.1-1.6-3c-0.3-0.5-0.7-0.9-1.1-1.3c-0.3-0.3-0.6-0.6-0.8-0.9c3,0,6.2,3.6,7.3,6.1c0.5,1,0.8,2.2,1.1,3.3
			c0.4,1.6,0.3,3.2,0.1,4.8C177.4,87.4,176.7,89.3,175.8,91.1z"/>
	</g>
	<g>
		<path class="st3" d="M1774,145.4c0.2-1.8,0-3.6-0.7-5.3c-3.3-7.8-16.9-8.8-20.3-9c-5.5-0.4-15.5-1.1-20.3,5.6
			c-3.5,4.9-3.6,12.9-0.7,18.1c0.9,1.5,2.1,3,1.8,3.3c-0.7,0.7-6.3-7.2-14.6-7.9c-1.2-0.1-6.5-0.3-10.1,3.3
			c-4.1,4.2-3.5,11-1.5,15.3c3,6.4,9.8,10.8,16.6,10.7c10.4-0.2,20.8-0.4,31.3-0.6c10.4-0.2,20.8-0.4,31.3-0.6c5.2-2,8.8-6.5,9-11.3
			c0.3-7.3-7.4-13.3-14.6-13.5c-3.7-0.1-6.7,1.4-7.4,1.7c-4.9,2.6-6.9,7.4-7.2,7.3C1766.1,162.4,1773.3,153.5,1774,145.4z"/>
		<path class="st5" d="M1730.7,153.5c0.4,0.8,0.8,1.5,1.3,2.2c1.4,2.3,2.9,4.6,5,6.3c1,0.9,2.5,1.6,3.8,1.8c-0.2-1.1-1.3-2-1.8-2.9
			c-0.7-1.1-1.3-2.2-1.8-3.3c-1.2-2.5-2.1-5.2-2.7-7.9c-0.3-1.4-0.6-2.7-0.7-4.1c-0.2-1.3-0.4-2.6-0.4-3.9c0-1.1,0.3-2.3,0.6-3.4
			c0.4-1.1,1-2.2,1.7-3.1c0.3-0.5,0.7-0.9,1.1-1.3c0.3-0.3,0.6-0.6,0.9-1c-3.1,0-6.4,3.7-7.6,6.3c-0.5,1.1-0.9,2.3-1.1,3.5
			c-0.4,1.6-0.3,3.3-0.1,5C1729.1,149.7,1729.8,151.6,1730.7,153.5z"/>
	</g>
	<g>
		<g id="PYGMY_GOAT_1_">
			<path id="GOATEE_1_" class="st6" d="M1308.4,263.3c0.1,2.6,0.8,5.2,1.9,7.5c0.2-0.5,0.4-1,0.6-1.4c0.9,1.8,1.3,3.8,1.2,5.8
				c0.2-1.2,0.7-2.3,1.4-3.3c0.2,1.2,0.3,2.5,0.3,3.7c0-1.3,0.4-2.7,1.2-3.8c0.1,0.4,0.2,0.8,0.3,1.2c-0.1-2.7,1.5-3.7,2.9-5.7
				c0,0.4-0.1,0.8-0.2,1.1c1.2-1.1,2-2.6,2.1-4.2c0,0.4-5.1,0.8-5.8,0.8c-2.3,0-4.5-0.8-6.6-1.7"/>
			<g id="HORNS_1_">
				<path id="LEFT_HORN_1_" class="st7" d="M1326.9,228.3c-1.8,1.3-3.1,3.2-3.7,5.2c-0.7,2.1-0.8,4.3-0.4,6.5
					c-1.2-0.1-2.4,0.1-3.5,0.5c-0.3,0.1-0.6,0.2-0.8,0.1c-0.3-0.1-0.4-0.5-0.4-0.8c-0.2-2,0.4-4.1,1.2-6c0.8-1.7,1.7-3.4,3.2-4.5
					s3.5-1.7,5.2-1.1c-0.3,0-0.6,0-0.9,0"/>
				<path id="RIGHT_HORN_1_" class="st7" d="M1337.3,228.5c-2.9,3.1-4.7,7.2-5,11.4c-2.1-0.4-4.2-0.5-6.4-0.3c-0.1-2,1-3.8,2.1-5.5
					c0.7-1,1.4-2,2.2-2.9C1332.2,229.4,1334.8,228.4,1337.3,228.5"/>
				<g>
					<path class="st8" d="M1332.7,236.8c-0.6-0.1-0.9-0.3-1.2-0.5c-0.3-0.3-0.5-0.5-0.7-1.1c0.6-0.1,1,0,1.4,0.3
						C1332.5,235.8,1332.7,236.2,1332.7,236.8z"/>
				</g>
				<g>
					<path class="st8" d="M1329.9,232.2c0.3-0.5,0.8-0.7,1.2-0.7c0.5,0,1,0.1,1.3,0.6c-0.5,0.3-0.9,0.4-1.2,0.4
						C1330.8,232.5,1330.4,232.5,1329.9,232.2z"/>
				</g>
				<g>
					<path class="st8" d="M1335.1,231.4c-0.5,0-0.7-0.1-0.9-0.2c-0.2-0.2-0.4-0.3-0.6-0.8c0.4-0.3,0.8-0.2,1.1,0
						C1335,230.6,1335.3,230.9,1335.1,231.4z"/>
				</g>
				<g>
					<path class="st8" d="M1325.1,230.1c-0.4,0.2-0.6,0.2-0.7,0.1c-0.2-0.1-0.3-0.2-0.4-0.6c0.3-0.4,0.6-0.4,0.8-0.3
						C1325,229.4,1325.1,229.6,1325.1,230.1z"/>
				</g>
				<g>
					<path class="st8" d="M1320,232.1c0.1-0.5,0.5-0.8,0.9-0.8c0.4,0,0.9,0.2,1,0.7c-0.5,0.2-0.7,0.3-1,0.3
						C1320.7,232.3,1320.5,232.3,1320,232.1z"/>
				</g>
				<g>
					<path class="st8" d="M1322.7,236.9c-0.6-0.2-1-0.3-1.4-0.5c-0.4-0.2-0.7-0.4-1.3-0.7c0.5-0.4,1.2-0.4,1.7-0.2
						C1322.3,235.7,1322.7,236.2,1322.7,236.9z"/>
				</g>
			</g>
			<path id="LEFT_SIDE_BURN_1_" class="st6" d="M1337.6,246.5c-0.6,0.8-0.7,1.9-0.5,2.8c-0.1-0.3-0.2-0.6-0.4-0.9
				c-0.6,1.6-1,3.3-1,5c-0.2-0.5-0.4-1-0.4-1.6c-0.2,0.8-0.4,1.6-0.6,2.5c-0.1,0.5-0.2,1-0.5,1.4c-0.6,0.7-1.6,0.9-2.2,1.5
				c0.2-0.9,0.5-1.8,0.9-2.6c0.3-0.6,0.8-1.2,1-1.8c0.3-0.8,0.2-1.8,0.4-2.6c0.4-1.7,1.9-2.9,3.5-3.6"/>
			<path id="RIGHT_SIDE_BURN_1_" class="st6" d="M1313.4,242.7c0.3,1.1,0.3,2.3-0.1,3.5c0.1-0.4,0.3-0.7,0.6-1.1
				c0.4,1-0.2,2.1-0.8,3c0.5-0.3,0.8-0.7,1.1-1.1c-0.1,0.6-0.3,1.3-0.6,1.9c1.1-0.5,1.7-1.8,1.5-3s-0.9-2.2-1.9-3"/>
			<g id="HEAD_1_">
				<path class="st9" d="M1337,246.9c2-1.1,4.6-0.7,6.8-1.5c1.2-0.5,2.3-1.4,3.3-2.3c1.4-1.2,2.8-2.4,3.8-3.9
					c1.1-1.5,1.8-3.3,1.7-5.1c0-0.2,0-0.5-0.2-0.7c-0.3-0.5-0.9-0.6-1.4-0.6c-4.5-0.3-9.2,1.4-12.5,4.5c-0.9,0.9-1.8,1.8-2.9,2.2
					s-2.8-0.1-3-1.4c-2-0.4-4.1-0.4-6.2-0.2c-0.4,0.7-1.2,1.1-2,1c-0.8-0.1-1.5-0.7-1.8-1.4c-1.2,0.2-2.4,0.5-3.6,0.7
					c-0.3,0.1-0.7,0.1-0.9,0.4c-0.3,0.3-0.4,0.7-0.7,0.9c-0.4,0.2-0.9,0-1.3-0.3c-1.4-1.1-2.1-3-3.6-4c-0.5-0.4-1.1-0.6-1.7-0.9
					c-0.6-0.4-1.1-0.9-1.7-1.4c-1.7-1.4-3.7-2.3-5.9-2.6c-0.2,0-0.4-0.1-0.6,0c-0.2,0.1-0.3,0.2-0.4,0.4c-0.4,0.8-0.2,1.8,0.1,2.6
					c0.4,1.2,0.7,2.4,1.1,3.6c0.8,2.5,1.8,5.4,4.3,6.3c1.6,0.6,3.3,0.2,4.9-0.2c0.5-0.1,1.1-0.3,1.6-0.1c0.4,0.2,0.7,0.5,0.8,0.9
					c0.7,1.4,0.5,3.2-0.5,4.5c-2,2.5-6.5,2.4-7.7,5.3c-0.3,0.8-0.3,1.6-0.4,2.5c-0.1,2.5,0,5.4,1.8,7.2c1.7,1.7,4.3,1.9,6.7,2
					c1.1,0,2.2,0.1,3.3-0.1c2.4-0.3,4.7-1.7,6.2-3.6c1.4-1.8,2.3-4.3,4.4-5.3c1.4-0.7,3.2-0.7,4.3-1.8c1-1,1-2.4,1.4-3.8
					c0.5-1.8,1.8-3.5,3.4-4.5"/>
				<path class="st6" d="M1337,246.9c1.7-0.9,3.7-0.8,5.5-1.2c1.9-0.3,3.3-1.6,4.7-2.9c1.4-1.3,2.8-2.6,3.8-4.1
					c0.5-0.8,0.9-1.6,1.1-2.5c0.1-0.4,0.2-0.9,0.2-1.3c0-0.4,0-1-0.1-1.3c-0.2-0.3-0.6-0.4-1-0.5c-0.4,0-0.9,0-1.4,0
					c-0.9,0-1.9,0.1-2.8,0.3c-1.8,0.4-3.6,1-5.2,1.9c-0.8,0.5-1.6,1-2.3,1.6c-0.7,0.6-1.3,1.3-2.1,1.9c-0.7,0.6-1.6,1.3-2.8,1.3
					c-0.5,0-1.1-0.1-1.6-0.4c-0.5-0.3-0.9-0.8-1-1.4l0.3,0.3c-2-0.4-4-0.4-6-0.2l0.3-0.2c-0.5,0.8-1.5,1.3-2.4,1.3
					c-1-0.1-1.8-0.8-2.2-1.7l0.5,0.3l-3.4,0.6c-0.3,0.1-0.6,0.1-0.7,0.2c-0.2,0.1-0.2,0.1-0.4,0.4c-0.1,0.2-0.3,0.7-0.8,0.8
					c-0.5,0.1-0.9,0-1.2-0.2c-1.2-0.7-1.8-1.8-2.4-2.7c-0.3-0.5-0.7-0.9-1.1-1.2c-0.4-0.3-0.8-0.6-1.4-0.8c-0.5-0.2-1.1-0.6-1.5-1
					c-0.5-0.4-0.9-0.8-1.3-1.1c-0.9-0.7-1.9-1.2-2.9-1.6c-0.5-0.2-1-0.4-1.6-0.5c-0.5-0.1-1.3-0.2-1.2-0.1c-0.2,0.2-0.3,0.7-0.2,1.2
					c0.1,0.5,0.2,1,0.4,1.6c0.7,2.2,1.2,4.5,2.2,6.4c0.5,1,1.2,1.8,2,2.4c0.9,0.6,1.9,0.7,3,0.6c0.5-0.1,1.1-0.2,1.6-0.3
					c0.5-0.1,1.1-0.3,1.8-0.4c0.4,0,0.8,0.1,1.1,0.4c0.3,0.2,0.5,0.5,0.7,0.8c0.3,0.6,0.5,1.2,0.5,1.8c0.1,1.3-0.4,2.6-1.3,3.5
					c-0.9,0.9-2,1.4-3.1,1.9c-1.1,0.5-2.1,0.9-3,1.5c-0.4,0.3-0.8,0.7-1.1,1.1c-0.3,0.4-0.4,0.9-0.5,1.5c-0.1,2.2-0.3,4.6,0.5,6.6
					c0.4,1,1.1,1.9,2,2.4c0.9,0.5,2,0.8,3.1,1c1.1,0.1,2.3,0.2,3.4,0.2c1.1,0,2.3,0,3.3-0.3c2.2-0.6,4.1-2,5.3-3.8
					c0.6-0.9,1.2-1.9,1.9-2.9c0.7-0.9,1.6-1.8,2.8-2.1c1.1-0.4,2.3-0.5,3.2-1.1c1-0.6,1.3-1.8,1.6-2.9c0.4-2.3,1.8-4.4,3.8-5.6
					c-2,1.2-3.2,3.4-3.6,5.6c-0.2,1.1-0.5,2.4-1.6,3.1c-1,0.7-2.2,0.8-3.3,1.2c-1.1,0.4-1.9,1.1-2.6,2.1c-0.7,0.9-1.2,1.9-1.8,2.9
					c-1.3,2-3.3,3.5-5.6,4.1c-1.1,0.3-2.3,0.4-3.5,0.4c-1.2,0-2.3,0-3.5-0.2c-1.2-0.1-2.4-0.4-3.4-1c-1.1-0.6-1.9-1.6-2.4-2.7
					c-0.5-1.1-0.6-2.3-0.7-3.5c0-1.2-0.1-2.3,0.1-3.5c0.1-0.6,0.3-1.2,0.6-1.8c0.4-0.5,0.8-1,1.3-1.3c1-0.7,2.1-1.1,3.2-1.6
					c1-0.5,2.1-0.9,2.8-1.7c0.7-0.7,1.1-1.8,1-2.8c-0.1-1-0.5-2.2-1.3-2.1c-0.4,0-1,0.2-1.6,0.3c-0.6,0.1-1.2,0.3-1.8,0.3
					c-1.2,0.1-2.5,0-3.6-0.7c-1.1-0.7-1.9-1.7-2.4-2.8c-0.6-1.1-0.9-2.2-1.3-3.3l-1-3.3c-0.2-0.5-0.4-1.1-0.4-1.8
					c-0.1-0.6,0-1.4,0.5-2c0.2-0.2,0.4-0.3,0.7-0.3c0.2,0,0.4,0,0.6,0c0.3,0,0.6,0.1,0.9,0.2c0.6,0.1,1.2,0.3,1.7,0.5
					c1.1,0.4,2.2,1,3.1,1.7c0.5,0.4,0.9,0.8,1.3,1.1c0.4,0.4,0.8,0.6,1.4,0.9c0.5,0.2,1.1,0.6,1.6,1c0.5,0.4,0.8,0.9,1.2,1.4
					c0.7,0.9,1.3,1.9,2.1,2.4c0.2,0.1,0.4,0.1,0.5,0.1c0.1,0,0.2-0.1,0.3-0.4c0.1-0.3,0.5-0.7,0.8-0.8c0.4-0.1,0.7-0.2,0.9-0.2
					l3.4-0.6l0.4-0.1l0.1,0.4c0.2,0.6,0.8,1.1,1.4,1.1c0.6,0.1,1.3-0.3,1.6-0.8l0.1-0.2l0.2,0c2.1-0.2,4.2-0.2,6.3,0.2l0.3,0.1
					l0,0.3c0.1,0.7,0.9,1.2,1.8,1.2c0.8,0,1.6-0.5,2.3-1.1c0.7-0.6,1.4-1.3,2.1-1.9c0.7-0.6,1.6-1.1,2.4-1.6
					c1.7-0.9,3.5-1.6,5.4-1.9c0.9-0.2,1.9-0.3,2.9-0.3c0.5,0,1,0,1.4,0c0.5,0.1,1.1,0.2,1.4,0.7c0.3,0.6,0.2,1,0.2,1.5
					c0,0.5-0.1,1-0.3,1.4c-0.3,0.9-0.7,1.8-1.2,2.6c-1.1,1.6-2.5,2.9-3.9,4.1c-0.7,0.6-1.4,1.2-2.2,1.8c-0.8,0.5-1.7,0.9-2.6,1.1
					C1340.6,246.1,1338.7,246,1337,246.9z"/>
			</g>
			<path class="st3" d="M1315.1,238.8c-0.2-0.5-0.5-0.8-0.9-1.1c-0.6-0.5-1.2-1.1-1.8-1.6c0.3,0.3,0.6,0.6,0.7,1.1
				c-0.8-0.3-1.6-0.6-2.4-0.9c-0.4-0.1-0.7-0.3-0.9-0.6c-0.1-0.2-0.3-0.4-0.4-0.3c0.1,0.4,0.3,0.9,0.6,1.2c-0.3,0-0.7,0-1,0.1
				c0.4,0.5,0.6,1.1,0.7,1.8c-0.3,0-0.5,0-0.8,0c0.7,0.4,1.2,1,1.6,1.8c-0.3,0-0.5,0.1-0.8,0.1c1,0.7,2.2,1.1,3.4,1.2
				c0.8,0.1,1.8,0,2.2-0.7c0.5-0.7,0.2-1.7-0.2-2.4"/>
			<path class="st3" d="M1342.2,234.6c0.7-0.2,1.5,0,2.1,0.4c-0.3,0-0.6,0-0.8,0.2c-0.2,0.2-0.3,0.5-0.1,0.7c-0.2,0-0.4,0-0.6,0.1
				c0.3,1-0.2,2.2-1.2,2.6c-0.1-0.1-0.2-0.3-0.3-0.4c-0.1,0.3-0.3,0.7-0.4,1c-0.1-0.1-0.1-0.2-0.2-0.4c-0.6,0.7-1.1,1.4-1.6,2.1
				c0-0.3,0-0.6-0.1-0.9c-0.8,0.7-1.3,1.7-1.3,2.7c-0.1-0.2-0.2-0.4-0.3-0.6c0,0-1.4,2-1.5,2.3c-0.1-0.8-0.1-1.6-0.4-2.5
				c-0.5,1.1-0.9,2.2-1.2,3.3c0.5-1.7,0.3-3.6-0.5-5.3c0-0.1,2.1-0.9,2.3-0.9c1.6-0.7,2.6-2.4,4.1-3.3c0.8-0.5,1.8-0.7,2.4-1.4"/>
			<g>
				<path class="st6" d="M1314.2,248.7c-0.6,1.1-1.9,1.7-3,2.2c-1.1,0.5-2.3,0.9-3.2,1.7c-0.8,0.7-1.2,1.9-0.9,3
					c0.2,1,1.1,1.9,2.1,2.3c1,0.4,2.3,0.4,3.5,0.4c1.2,0,2.5,0.2,3.6,0.1c0.6-0.1,1.1-0.2,1.6-0.5c0.5-0.3,0.9-0.7,1.1-1.2
					c0.2-0.5,0.1-1.1-0.2-1.6c-0.3-0.5-0.7-1-0.9-1.6c0.3,0.6,0.8,1,1.1,1.5c0.4,0.5,0.6,1.2,0.4,1.9c-0.2,0.7-0.6,1.2-1.2,1.6
					c-0.6,0.4-1.2,0.6-1.9,0.7c-1.3,0.2-2.5,0.1-3.8,0.1c-1.2,0-2.5,0-3.8-0.4c-1.3-0.5-2.4-1.6-2.7-3c-0.3-1.4,0.2-2.9,1.3-3.7
					c1.1-0.9,2.3-1.2,3.5-1.5C1312.2,250,1313.4,249.6,1314.2,248.7z"/>
			</g>
			<path class="st10" d="M1302.1,258.9C1302.1,258.9,1302.1,258.9,1302.1,258.9"/>
			<g>
				<path class="st6" d="M1317.8,261.7c0.3,0.4,0.1,1.1-0.4,1.5c-0.5,0.3-1.1,0.4-1.5,0.5c-0.5,0.1-1,0.1-1.5,0.2
					c-0.5,0-1.1-0.1-1.6-0.3c-0.5-0.2-1-0.5-1.3-1c-0.4-0.4-0.6-1-0.7-1.6c0-0.6,0.1-1,0.1-1.5c0-0.2,0-0.4-0.1-0.6
					c-0.1-0.2-0.4-0.3-0.6-0.4c0.2,0,0.5,0,0.8,0.2c0.3,0.2,0.4,0.5,0.4,0.8c0.1,0.5,0.1,1,0.2,1.4c0.2,0.8,0.8,1.4,1.6,1.8
					c0.8,0.4,1.6,0.3,2.7,0.3c0.5,0,0.9,0,1.3-0.1C1317.5,262.6,1317.9,262.2,1317.8,261.7z"/>
			</g>
			<path class="st11" d="M1313.7,243.1c0.2-0.1,0.2-0.5,0.1-0.7c-0.2-0.2-0.4-0.2-0.7-0.3c-1.2-0.2-2.4-0.2-3.6-0.5
				c-1.2-0.2-2.4-0.7-3.2-1.7c-0.4-0.5-0.7-1.2-1.1-1.7c-0.4-0.6-1-1-1.5-1.6c-0.8-1-1.1-2.2-1.3-3.4c0.3,1.6,0.8,3.1,1.3,4.6
				c0.5,1.3,1.1,2.7,2,3.7c0.9,1.1,2.3,1.9,3.7,1.9c0.6,0,1.2-0.1,1.8-0.2c0.9-0.2,1.9-0.4,2.8-0.6"/>
			<path class="st11" d="M1350.9,236.5c0.9-0.9,1.5-2,1.7-3.2c0.3,2-0.5,4-1.6,5.7c-1.1,1.7-2.6,3-4.1,4.4c-0.9,0.8-1.9,1.7-3,2.1
				c-2.1,0.8-4.6,0.1-6.6,1.1c0.6-2.7,2.6-5.1,5.3-6.1c1.2-0.4,2.4-0.6,3.6-1c2.3-0.7,4.4-2.2,5.8-4.2"/>
			<g>
				<path class="st6" d="M1337.5,246.4c-0.2-0.9,0.1-1.9,0.5-2.7c0.5-0.8,1.1-1.5,1.9-2.1c1.6-1.1,3.4-1.6,5.1-2.1
					c1.7-0.5,3.3-1.1,4.6-2.2c0.7-0.6,1.2-1.2,1.7-1.9c0.5-0.7,0.9-1.5,0.9-2.4c0.3,0.9-0.1,1.9-0.5,2.7c-0.4,0.8-1,1.6-1.6,2.3
					c-1.3,1.4-3.2,2.1-4.9,2.6c-1.7,0.5-3.4,0.9-4.9,1.8C1338.9,243.1,1337.6,244.5,1337.5,246.4z"/>
			</g>
			<g>
				<path class="st6" d="M1313.9,242.8c-0.6-0.5-1.4-0.4-2.1-0.4c-0.8,0.1-1.6,0-2.3-0.2c-1.6-0.4-2.9-1.3-4-2.4
					c-1.1-1.1-1.9-2.5-2.5-4c-0.6-1.4-0.9-2.9-1.1-4.5c0.6,1.4,1.1,2.8,1.8,4.1c0.7,1.3,1.5,2.6,2.5,3.6c1,1,2.2,1.9,3.5,2.4
					c0.7,0.2,1.4,0.4,2.1,0.5C1312.5,242,1313.4,242.1,1313.9,242.8z"/>
			</g>
			<g id="right_eye_8_">
				<g id="right_eye_14_">
					
						<ellipse transform="matrix(0.4449 -0.8956 0.8956 0.4449 514.6201 1315.3903)" class="st3" cx="1318.4" cy="242.6" rx="4.6" ry="4.6"/>
					<g>
						<path class="st6" d="M1316.4,246.7c1.1,0.5,2.4,0.6,3.5,0.1c1.1-0.5,1.9-1.4,2.2-2.4c0.4-1,0.3-2.1-0.1-3
							c-0.4-0.9-1.1-1.6-1.9-2c-0.8-0.4-1.8-0.6-2.8-0.3c-1,0.2-1.9,0.8-2.5,1.7c-0.6,0.9-0.8,2.1-0.6,3.2
							C1314.5,245.1,1315.3,246.1,1316.4,246.7z M1316.4,246.7c-1.1-0.5-2-1.4-2.4-2.6c-0.5-1.1-0.5-2.5-0.1-3.8
							c0.5-1.3,1.5-2.4,2.8-2.9c1.3-0.5,2.9-0.5,4.2,0.2c1.3,0.6,2.3,1.9,2.7,3.3c0.4,1.4,0.1,2.9-0.6,4c-0.7,1.1-1.8,1.9-3,2.2
							C1318.7,247.3,1317.5,247.2,1316.4,246.7z"/>
					</g>
				</g>
				<circle id="right_pupil_6_" class="st12" cx="1317.2" cy="243.3" r="1.6"/>
				<g id="right_eyebrow_7_">
					<path class="st6" d="M1323,243.1c-0.6-1.1-1.1-1.7-1.7-2.4c-0.6-0.6-1.2-1.2-1.9-1.8c-0.7-0.6-1.4-1.2-2.1-2
						c-0.7-0.7-1.4-1.5-2-2.5c1.2-0.1,2.3,0.2,3.3,0.6c1,0.4,1.9,0.9,2.8,1.7c0.8,0.8,1.6,1.8,2,2.9
						C1323.8,240.7,1323.8,242.1,1323,243.1z"/>
				</g>
			</g>
			<g id="left_eye_8_">
				<g id="left_eye_14_">
					<ellipse transform="matrix(0.5 -0.866 0.866 0.5 454.5737 1272.4611)" class="st3" cx="1329.3" cy="242.6" rx="5.4" ry="5.4"/>
					<g>
						<path class="st6" d="M1326.6,247.3c1.2,0.7,2.8,0.9,4.1,0.4c1.3-0.4,2.4-1.5,2.9-2.6c0.5-1.2,0.5-2.5,0.1-3.7
							c-0.4-1.1-1.2-2.1-2.2-2.7c-1-0.6-2.2-0.8-3.4-0.6c-1.2,0.2-2.3,0.9-3.1,1.9c-0.8,1-1.1,2.5-0.8,3.8
							C1324.4,245.3,1325.3,246.6,1326.6,247.3z M1326.6,247.3c-1.2-0.7-2.2-1.9-2.7-3.3c-0.5-1.4-0.4-3,0.2-4.4
							c0.6-1.4,1.9-2.6,3.5-3.1c1.6-0.5,3.4-0.3,4.8,0.5c1.5,0.8,2.5,2.3,2.9,3.9c0.3,1.6,0,3.3-0.9,4.6c-0.9,1.3-2.3,2.1-3.7,2.4
							C1329.3,248.2,1327.8,248,1326.6,247.3z"/>
					</g>
				</g>
				<circle id="left_pupil_6_" class="st12" cx="1327.9" cy="243.5" r="1.7"/>
				<g id="left_eyebrow_7_">
					<path class="st6" d="M1334,233.7c-0.9,1.1-2,1.9-3.1,2.6c-1.1,0.7-2.1,1.3-2.9,1.9c-0.8,0.6-1.5,1.4-2.2,2.3
						c-0.7,0.9-1.3,2-1.8,3.3c-0.7-1.3-0.7-2.8-0.3-4.2c0.4-1.4,1.3-2.7,2.5-3.7c1.2-1,2.6-1.4,3.9-1.7
						C1331.3,233.8,1332.6,233.6,1334,233.7z"/>
				</g>
			</g>
			<path class="st6" d="M1332.4,238.6c-0.4-0.3-0.8-0.5-1.1-0.6c-1.2-0.6-2.7-0.6-4-0.1c-1,0.4-1.8,1-2.4,1.8
				c-0.2,0.3-0.6,0.8-0.7,1.2c-0.1,0.2,0,0.5,0,0.7c0,0.2,0.2,0.6,0.2,0.7c0.2-1.1,1-1.9,1.9-2.4c1.5-0.7,3.3-0.8,4.9-0.2
				c0.9,0.4,1.7,1,2.2,1.8c0.3,0.4,0.5,0.8,0.7,1.3c0.1,0.3,0.3,0.7,0.5,0.4c0.2-0.3,0-1-0.1-1.4c-0.1-0.5-0.3-0.9-0.5-1.4
				C1333.7,239.7,1333.1,239,1332.4,238.6z"/>
			<path class="st6" d="M1323,243.3c0.1-0.4,0-0.9-0.3-1.3c-0.9-1.6-2.6-2.8-4.4-2.9c-1.8-0.1-3.7,1-4.4,2.7
				c0.2-1.1,0.8-2.2,1.7-2.9c0.9-0.8,2.2-1.2,3.4-1c1.2,0.3,2.2,1.2,3,2.2c0.2,0.2,0.4,0.4,0.5,0.7c0.2,0.5,0,1.2,0.3,1.7"/>
			<path class="st3" d="M1323.6,244.5c-0.1,1,0.1,2,0.7,2.9c-1.1,0-2.1,0.5-2.8,1.4c0.1-0.7,0-1.3-0.1-2
				C1322.4,246.3,1323.2,245.4,1323.6,244.5"/>
			<g>
				<path class="st6" d="M1346.8,232.8c-1,0.7-2.2,1.2-3.3,1.6c-1.1,0.4-2.1,1-3,1.8c-0.9,0.8-1.7,1.7-2.7,2.5
					c-1,0.8-2.3,1.4-3.5,1.3c1.2-0.3,2.2-1,3-1.8c0.8-0.8,1.6-1.8,2.5-2.7c0.5-0.4,1-0.8,1.6-1.1c0.6-0.3,1.2-0.5,1.8-0.7
					C1344.5,233.3,1345.6,233.1,1346.8,232.8z"/>
			</g>
		</g>
		<g>
			<g>
				<path class="st9" d="M1377.5,265.3c-0.5-2-1.5-3.8-2.8-5.3c-2.3-2.7-5.8-4.3-9.4-4.4c-4.6-0.1-9.2,2.2-13.8,1.3
					c-2.5-0.5-5-1.9-7.5-1.2c-1.4,0.4-2.8,1.7-4.3,1.4c-1.2-0.2-2-1.4-2.8-2.5c-1.4-2.1-2-4.6-1.6-7.1c-2.8-0.1-5.5,0.9-7.6,2.7
					c-2.1,1.8-3.4,4.5-3.5,7.3c0,0.5,0,1,0.2,1.4c0.3,0.4,0.9,0.7,1.3,0.4l0.3-0.2c1.1,0.7,2.1,1.6,3,2.7c2.1,2.6,2.6,5.8,3.5,8.9
					c0.4,1.3,0.8,2.6,1.3,3.8c1,2.5,2,5,2.8,7.6c0.3,1.1,0.6,2.2,0.8,3.3c0.2,1.2,0.2,2.3,0.2,3.5c0,0.1,0,0.2,0.1,0.3
					c0.1,0.1,0.2,0.1,0.4,0.1c1.3,0,2.6-0.1,4-0.1c0-2.1-0.2-4.3-0.2-6.4c0-1.4,0-2.9,0.5-4.3c0.4-1.1,1.1-2.1,1.7-3.1
					c3.1,0.8,6.6,1.2,10.4,1.2c2.2,0,5-0.9,6.8,0.3c1.6,1.1,2.4,3.3,2.9,5.1c0.7,2.7,1.1,5.1,2.1,7.8c0.9,0,1.7,0,2.6,0
					c0.2,0,0.3,0,0.5-0.1c0.3-0.2,0.4-0.5,0.4-0.9c0.3-2.3,0.2-4.4,0.7-6.7c0.5-2.6,1.3-5.1,2.2-7.6c0.5-1.4,1.1-2.8,1.3-4.2
					c0.2-1.5,0.1-3.1-0.8-4.2c1.2,0.2,2,1.3,2.4,2.4c0.3,1.1,0.2,2.4,0.1,3.6c0.5,0.3,1.2,0.1,1.6-0.4s0.5-1.1,0.6-1.7
					C1378,268.3,1377.9,266.8,1377.5,265.3z"/>
				<path class="st6" d="M1377.5,265.3c-0.6-2.2-1.7-4.2-3.3-5.8c-1.6-1.6-3.6-2.8-5.8-3.4c-2.2-0.6-4.5-0.6-6.7-0.2
					c-2.2,0.4-4.4,1-6.7,1.2c-1.1,0.1-2.3,0.1-3.4-0.1c-1.1-0.2-2.2-0.6-3.3-0.9c-1.1-0.3-2.2-0.6-3.3-0.5c-1.1,0-2.1,0.6-3.1,1.1
					c-0.5,0.2-1.1,0.5-1.7,0.5c-0.6,0.1-1.2-0.1-1.7-0.5c-1-0.7-1.6-1.7-2.2-2.7c-1.2-2-1.7-4.4-1.3-6.7l0.3,0.3
					c-3.2-0.1-6.4,1.3-8.4,3.7c-1,1.2-1.7,2.7-2.1,4.2c-0.2,0.8-0.3,1.6-0.3,2.3c0,0.3,0.1,0.7,0.3,0.8c0.2,0.2,0.5,0.2,0.6,0.1l0,0
					l0.3-0.2l0.2-0.2l0.3,0.2c1.4,0.9,2.6,2,3.5,3.3c1,1.3,1.6,2.8,2,4.3c0.5,1.5,0.8,3,1.3,4.5c0.5,1.5,1,2.9,1.6,4.4
					c0.6,1.4,1.2,2.9,1.7,4.4c0.3,0.7,0.5,1.5,0.8,2.2l0.6,2.3l0.3,1.2c0.1,0.4,0.1,0.8,0.1,1.2c0,0.8,0,1.6,0,2.4c0,0.1,0,0.1,0,0
					c-0.1-0.1-0.2-0.1-0.1-0.1l0.5,0l1.2,0l2.3-0.1l-0.5,0.5c0.1-2.3-0.2-4.7-0.1-7.1c0-1.2,0.1-2.5,0.5-3.7
					c0.4-1.2,1.1-2.2,1.8-3.2l0.2-0.2l0.3,0.1c2.5,0.6,5.1,1,7.7,1.2c1.3,0.1,2.6,0.2,3.9,0c1.3-0.1,2.6-0.3,4-0.1
					c0.7,0.1,1.4,0.4,1.9,0.8c0.6,0.4,1,1,1.4,1.5c0.7,1.2,1.1,2.4,1.4,3.7c0.6,2.6,1.1,5.1,1.9,7.6l-0.2-0.1l1.7,0l0.9,0
					c0.3,0,0.5,0,0.6-0.2c0.2-0.4,0.2-1.1,0.3-1.6l0.1-1.7c0.1-1.2,0.2-2.3,0.4-3.5c0.2-1.1,0.5-2.3,0.8-3.4
					c0.6-2.2,1.4-4.4,2.3-6.5c0.4-1.1,0.7-2.2,0.7-3.3c0-1.1-0.2-2.3-0.9-3.2l-0.1-0.1l0.1,0c0.6,0.1,1.1,0.5,1.5,0.9
					c0.4,0.4,0.7,1,0.9,1.6c0.3,1.2,0.2,2.4,0.1,3.6l0,0c0.6,0.3,1.4,0,1.7-0.6c0.4-0.6,0.4-1.3,0.5-2
					C1377.9,268,1377.8,266.6,1377.5,265.3z M1377.5,265.3c0.3,1.3,0.5,2.7,0.4,4.1c-0.1,0.7-0.1,1.4-0.5,2c-0.3,0.6-1.1,1-1.8,0.6
					l0,0l0,0c0.1-1.2,0.2-2.4-0.2-3.6c-0.3-1.1-1.2-2.2-2.4-2.4l0-0.1c0.7,0.9,1,2.1,0.9,3.3c0,1.2-0.3,2.3-0.7,3.4
					c-0.8,2.2-1.6,4.3-2.2,6.6c-0.3,1.1-0.6,2.2-0.8,3.4c-0.2,1.1-0.3,2.3-0.3,3.4l-0.1,1.7l-0.1,0.9c0,0.3,0,0.6-0.2,0.9
					c-0.1,0.1-0.2,0.3-0.4,0.4c-0.2,0.1-0.3,0.1-0.5,0.1l-0.9,0l-1.7,0l-0.1,0l0-0.1c-0.9-2.5-1.4-5.1-2.1-7.6
					c-0.3-1.3-0.7-2.5-1.4-3.5c-0.7-1.1-1.7-1.9-2.9-2c-1.2-0.2-2.5,0.1-3.8,0.2c-1.3,0.2-2.7,0.1-4,0c-2.6-0.1-5.3-0.5-7.8-1.1
					l0.5-0.2c-0.7,1-1.3,2-1.7,3c-0.4,1.1-0.5,2.2-0.5,3.4c0,2.4,0.2,4.7,0.2,7.2l0,0.4l-0.4,0l-2.3,0.1l-1.2,0c-0.2,0-0.3,0-0.6,0
					c-0.1,0-0.4-0.1-0.6-0.3c-0.2-0.3-0.1-0.4-0.1-0.6c0-1.6,0.1-3-0.4-4.5c-0.6-3-1.9-5.9-3-8.8c-0.6-1.4-1-3-1.6-4.4
					c-0.5-1.5-0.8-3-1.3-4.5c-0.4-1.5-1-2.9-1.9-4.1c-0.9-1.2-2-2.3-3.2-3.1l0.5,0l-0.3,0.2l0,0l0,0c-0.6,0.4-1.3,0.2-1.6-0.2
					c-0.4-0.4-0.5-0.9-0.5-1.4c0-0.9,0.1-1.7,0.3-2.5c0.4-1.6,1.2-3.2,2.3-4.4c2.2-2.6,5.6-4,8.9-3.8l0.3,0l-0.1,0.3
					c-0.4,2.2,0.1,4.5,1.2,6.4c0.6,0.9,1.2,1.9,2,2.6c0.9,0.7,2,0.5,3,0c0.5-0.2,1-0.5,1.5-0.7c0.5-0.2,1.1-0.4,1.7-0.4
					c1.2-0.1,2.3,0.2,3.4,0.5c1.1,0.3,2.2,0.7,3.3,0.9c1.1,0.2,2.2,0.2,3.4,0.1c2.2-0.2,4.4-0.8,6.7-1.1c2.2-0.4,4.6-0.4,6.7,0.2
					c2.2,0.6,4.2,1.8,5.8,3.4C1375.8,261,1376.9,263.1,1377.5,265.3z"/>
			</g>
			<path class="st13" d="M1365.8,288.6c0-0.2,0-0.5,0.1-0.6c0.4-0.5,1.6-0.6,2.2-0.5c0.8,0.1,2.4,1.3,1.3,2.3
				c-0.2,0.1-0.4,0.1-0.6,0.1c-0.9-0.1-1.8-0.2-2.7-0.3C1366,289.3,1365.8,288.9,1365.8,288.6z"/>
			<path class="st13" d="M1337.7,287.5c0.2-0.3,0.5-0.5,0.9-0.6c0.6-0.2,1.3-0.1,1.9,0.1c0.4,0.1,0.8,0.2,1.1,0.5
				c0.3,0.3,0.7,1.3,0.3,1.6c-0.3,0.3-1.8,0.1-2.2,0.1c-1,0-2.8,0.3-2.1-1.4C1337.6,287.7,1337.6,287.6,1337.7,287.5z"/>
			<path class="st6" d="M1347,255.5c-1.5-0.3-3.3-0.1-4.5,1c-1.3,1.2,0.8,2.4,1.8,2.8c1.8,0.7,3.7,1.5,5.5,2.2
				c1.5,0.6,3.1,1.2,4.4,2.2c1.3,1,2.6,2.4,4.2,2.3c0.5,0,1-0.2,1.3-0.5c0.8-1-0.4-2.7,0.3-3.8c0.3-0.5,1-0.8,1.4-1.3
				c0.7-0.9,0.3-2.3-0.5-3c-0.9-0.7-2.1-0.9-3.2-0.8c-1.6,0-3.2,0.5-4.7,0.3c-1.5-0.1-2.8-0.8-4.3-1.1c-0.3,0-0.7-0.1-1-0.2
				C1347.5,255.6,1347.3,255.6,1347,255.5z"/>
			<path class="st6" d="M1337.9,274.6c-0.6-0.1-1.1-0.7-1.3-1.3c-0.2-0.6-0.2-1.3-0.1-2c0.1-1.9-0.9-8,2.1-8.3c0.3,0,0.6,0,0.9,0.2
				c0.1,0.1,0.2,0.3,0.3,0.5c0.9,1.5,2.6,2.1,4.3,2.6c0.8,0.2,1.7,0.5,2.4,1c0.7,0.5,1.2,1.4,1.1,2.2c-0.2,0.8-0.9,1.4-1.8,1.6
				c-0.8,0.2-1.7,0.1-2.5-0.1c-0.4-0.1-0.8-0.1-1.1,0C1340.2,271.3,1340.4,275.1,1337.9,274.6z"/>
			<path class="st6" d="M1375.3,268.5c0.1,1.4,0,2.7-0.3,4c0.3-0.3,0.5-0.5,0.8-0.8c-0.1,0.4,0,0.9,0.3,1.3c0.2-0.5,0.3-0.9,0.5-1.4
				c0.1,0.6,0.5,1.1,1,1.2c0.1-0.6,0-1.2-0.2-1.7c0.5,0.2,0.9,0.5,1.4,0.7c-0.9-1.4-0.7-3.1-0.8-4.7c-0.2-2.5-1.3-4.9-3-6.7
				c0.3,0.7,0.5,1.5,0.7,2.3c0.2,1.2,0.3,2.5,0.4,3.7c0.1,0.8,0,1.8-0.6,2.3"/>
			<path class="st6" d="M1366.6,265.3c-0.4,0-0.8,0-1.2,0c-0.3,1-0.5,2.1-1.1,3.1c-0.5,1-1.3,1.8-2.3,2.2c-0.3,0.1-0.7,0.2-1,0.4
				c-0.3,0.2-0.5,0.5-0.6,0.8c-0.2,0.7,0.1,1.4,0.7,1.8c0.5,0.5,1.2,0.7,1.9,0.8c1,0.2,2,0.3,3-0.1c1.5-0.6,2.3-2.4,2.8-4
				c0.3-0.8,0.5-1.7,0.5-2.6c0-0.9-0.3-1.8-1-2.4c-0.7-0.6-1.8-0.7-2.4-0.1"/>
		</g>
	</g>
	<g>
		<path class="st1" d="M285.7,229.4c0.3-1,0.7-2,0.7-3.1c0-1.1-0.4-2.2-1.2-2.8c1.2,1.1,2.1,2.4,2.8,3.9c0.9-2.5,2.6-4.7,4.8-6.1
			c-0.5,0.9-0.9,1.8-1.1,2.7c-0.3,0.9-0.4,2,0.4,2.6c0.4,0.3,0.9,0.3,1.3,0.2c1.3-0.2,2.3-1.5,2.6-2.8c0.3-1.3,0.1-2.7,0-4
			c0.3,1.2,0.5,2.4,0.8,3.6c0.6,2.5,1.4,5.4,3.8,6.3"/>
		<path class="st2" d="M285.7,229.4c0.3-1,0.6-2.1,0.6-3.1c0-1-0.5-2.1-1.3-2.6l0.3-0.4c1.2,1.1,2.3,2.4,3,3.9l-0.7,0
			c0.8-2.6,2.6-4.8,4.9-6.4l1.6-1l-0.9,1.7c-0.3,0.5-0.5,1.1-0.8,1.7c-0.2,0.6-0.4,1.2-0.5,1.7c-0.1,0.5,0,1.1,0.3,1.3
			c0.1,0.1,0.4,0.2,0.6,0.2c0.1,0,0.2,0,0.4,0l0.2,0l0.2-0.1c0.5-0.2,0.9-0.5,1.3-1c0.2-0.2,0.3-0.5,0.4-0.7
			c0.1-0.3,0.2-0.5,0.3-0.8c0.1-0.5,0.1-1.2,0.1-1.8c0-0.6-0.1-1.2-0.2-1.8l0.8-0.1c0.4,1.8,0.7,3.7,1.2,5.5
			c0.2,0.9,0.6,1.8,1.1,2.6c0.5,0.8,1.2,1.5,2,1.9c-0.4-0.2-0.9-0.4-1.3-0.7c-0.4-0.3-0.7-0.7-1-1c-0.6-0.8-1-1.7-1.3-2.6
			c-0.3-0.9-0.5-1.8-0.8-2.7l-0.7-2.7l0.8-0.1c0.2,1.2,0.4,2.5,0.1,3.9c-0.3,1.3-1.1,2.7-2.5,3.2l-0.3,0.1l-0.3,0.1
			c-0.2,0-0.4,0-0.6,0c-0.4,0-0.8-0.1-1.2-0.4c-0.3-0.3-0.6-0.7-0.6-1.1c-0.1-0.4-0.1-0.8,0-1.1c0.1-0.7,0.3-1.3,0.6-1.9
			c0.2-0.6,0.5-1.2,0.8-1.8l0.7,0.6c-1.1,0.7-2,1.5-2.8,2.5c-0.4,0.5-0.7,1-1.1,1.6c-0.3,0.5-0.6,1.1-0.8,1.7l-0.3,0.9l-0.4-0.9
			c-0.6-1.4-1.5-2.8-2.6-3.9l0.3-0.4c0.5,0.3,0.8,0.9,1,1.4c0.2,0.5,0.3,1.1,0.2,1.6C286.5,227.4,286.1,228.5,285.7,229.4z"/>
	</g>
</g>
<g id="Layer_2">
	<g>
		
			<linearGradient id="SVGID_1_" gradientUnits="userSpaceOnUse" x1="963.7915" y1="194.9583" x2="963.3778" y2="251.5768" gradientTransform="matrix(1 0 0 -1 0.25 314)">
			<stop  offset="0" style="stop-color:#BE1E2D"/>
			<stop  offset="9.000000e-02" style="stop-color:#C8342A"/>
			<stop  offset="0.27" style="stop-color:#D95625"/>
			<stop  offset="0.45" style="stop-color:#E67122"/>
			<stop  offset="0.63" style="stop-color:#F0851F"/>
			<stop  offset="0.81" style="stop-color:#F5901E"/>
			<stop  offset="1" style="stop-color:#F7941D"/>
		</linearGradient>
		<path class="st14" d="M967.2,94.6c0,0,6.8-0.1,8.3-6.2c0,0,2.3-11.6-8-12.6c-6.2-0.6-12.5-0.2-18.6,1.3l1.3,41.8
			c0,0,18.7,2.7,24-1.6c0,0,7.9-7.3,2.8-15.9C977,101.5,974.9,97.2,967.2,94.6z M953.5,78.2c0,0,2.7-1.3,8.1,0.2
			c5.2,1.5,5,10.4,5,10.4c-1,5.2-11,5.4-11,5.4L953.5,78.2z M969.1,109.5c-3.6,9.3-9.8,8.4-9.8,8.4l-3-20.9c0,0,3.5-1.3,9.9,2.2
			C968.9,101.8,970,105.8,969.1,109.5z"/>
		
			<linearGradient id="SVGID_2_" gradientUnits="userSpaceOnUse" x1="987.0677" y1="191.8628" x2="986.7609" y2="233.5894" gradientTransform="matrix(1 0 0 -1 0 314)">
			<stop  offset="0" style="stop-color:#BE1E2D"/>
			<stop  offset="9.000000e-02" style="stop-color:#C8342A"/>
			<stop  offset="0.27" style="stop-color:#D95625"/>
			<stop  offset="0.45" style="stop-color:#E67122"/>
			<stop  offset="0.63" style="stop-color:#F0851F"/>
			<stop  offset="0.81" style="stop-color:#F5901E"/>
			<stop  offset="1" style="stop-color:#F7941D"/>
		</linearGradient>
		<polygon class="st15" points="990.6,90.6 983.1,90.1 984,122.7 986.7,122.7 		"/>
		
			<linearGradient id="SVGID_3_" gradientUnits="userSpaceOnUse" x1="987.5692" y1="227.9984" x2="987.4892" y2="240.0347" gradientTransform="matrix(1 0 0 -1 0.25 314)">
			<stop  offset="0" style="stop-color:#BE1E2D"/>
			<stop  offset="9.000000e-02" style="stop-color:#C8342A"/>
			<stop  offset="0.27" style="stop-color:#D95625"/>
			<stop  offset="0.45" style="stop-color:#E67122"/>
			<stop  offset="0.63" style="stop-color:#F0851F"/>
			<stop  offset="0.81" style="stop-color:#F5901E"/>
			<stop  offset="1" style="stop-color:#F7941D"/>
		</linearGradient>
		<path class="st16" d="M983.8,77c-1.7,1.4-2.2,3.7-1.1,5.6c0,0,3.8,5.4,7.2,2.9c0,0,6-3.1,2.6-6.4C989,75.8,983.8,77,983.8,77z"/>
		
			<linearGradient id="SVGID_4_" gradientUnits="userSpaceOnUse" x1="1013.4233" y1="195.2922" x2="1013.0231" y2="250.7097" gradientTransform="matrix(1 0 0 -1 0 314)">
			<stop  offset="0" style="stop-color:#BE1E2D"/>
			<stop  offset="9.000000e-02" style="stop-color:#C8342A"/>
			<stop  offset="0.27" style="stop-color:#D95625"/>
			<stop  offset="0.45" style="stop-color:#E67122"/>
			<stop  offset="0.63" style="stop-color:#F0851F"/>
			<stop  offset="0.81" style="stop-color:#F5901E"/>
			<stop  offset="1" style="stop-color:#F7941D"/>
		</linearGradient>
		<polygon class="st17" points="998,76.3 996.9,119.5 1029.9,119.3 1029.5,112.5 1000.3,112 1002.5,76.4 		"/>
		
			<linearGradient id="SVGID_5_" gradientUnits="userSpaceOnUse" x1="1022.8657" y1="204.8998" x2="1022.5054" y2="255.4068" gradientTransform="matrix(1 0 0 -1 0 314)">
			<stop  offset="0" style="stop-color:#BE1E2D"/>
			<stop  offset="9.000000e-02" style="stop-color:#C8342A"/>
			<stop  offset="0.27" style="stop-color:#D95625"/>
			<stop  offset="0.45" style="stop-color:#E67122"/>
			<stop  offset="0.63" style="stop-color:#F0851F"/>
			<stop  offset="0.81" style="stop-color:#F5901E"/>
			<stop  offset="1" style="stop-color:#F7941D"/>
		</linearGradient>
		<polygon class="st18" points="1012.8,100.2 1013.1,70.5 1010.2,70.4 1009.4,107.7 1036.3,109.7 1036.1,98.7 		"/>
		
			<linearGradient id="SVGID_6_" gradientUnits="userSpaceOnUse" x1="1053.2715" y1="186.4055" x2="1052.8177" y2="249.1355" gradientTransform="matrix(1 0 0 -1 0.25 314)">
			<stop  offset="0" style="stop-color:#BE1E2D"/>
			<stop  offset="9.000000e-02" style="stop-color:#C8342A"/>
			<stop  offset="0.27" style="stop-color:#D95625"/>
			<stop  offset="0.45" style="stop-color:#E67122"/>
			<stop  offset="0.63" style="stop-color:#F0851F"/>
			<stop  offset="0.81" style="stop-color:#F5901E"/>
			<stop  offset="1" style="stop-color:#F7941D"/>
		</linearGradient>
		<path class="st19" d="M1056.9,98.6c-14.1,4.2-11.3-11.8-11.3-17.4l-5.5,1.6c0,0-3,20.9,9,21.4c0,0,6.3-0.1,8.4-2.2l0.9,15
			c0,0,1.6,8.5-7.7,8.3c0,0-6.9,0-6.6-8.9l-2.7-0.3c0,0-1.2,9.7,5.8,11.9c0,0,12.9,3.6,15.7-6.7c1.8-6.9,3.7-41.8,3.7-41.8
			l-10.7,0.2C1056,79.5,1056.6,93.7,1056.9,98.6z"/>
		
			<linearGradient id="SVGID_7_" gradientUnits="userSpaceOnUse" x1="968.5761" y1="160.6649" x2="968.3226" y2="196.4535" gradientTransform="matrix(1 0 0 -1 0.25 314)">
			<stop  offset="0" style="stop-color:#BE1E2D"/>
			<stop  offset="9.000000e-02" style="stop-color:#C8342A"/>
			<stop  offset="0.27" style="stop-color:#D95625"/>
			<stop  offset="0.45" style="stop-color:#E67122"/>
			<stop  offset="0.63" style="stop-color:#F0851F"/>
			<stop  offset="0.81" style="stop-color:#F5901E"/>
			<stop  offset="1" style="stop-color:#F7941D"/>
		</linearGradient>
		<path class="st20" d="M968.8,144.7l8.3-1.9c0,0,0.2,5.2-3.3,8.2c0,0-8.3,4-8.3-7.9c0,0-1.5-16.1,5.8-15.5c1.8,0.2,4.7,4.9,4.7,4.9
			l1.7-0.8c-1.3-2.8-3.8-5-6.8-5.8c0,0-9.5-1.3-11.4,6.4c0,0-3.7,15.5,4.8,20.3c0,0,7.4,2.7,11.4-0.2c2-2.1,3.1-4.8,3.1-7.6v-4
			l-8.3-1L968.8,144.7z"/>
		
			<linearGradient id="SVGID_8_" gradientUnits="userSpaceOnUse" x1="991.4387" y1="159.1967" x2="991.2119" y2="190.7952" gradientTransform="matrix(1 0 0 -1 0.25 314)">
			<stop  offset="0" style="stop-color:#BE1E2D"/>
			<stop  offset="9.000000e-02" style="stop-color:#C8342A"/>
			<stop  offset="0.27" style="stop-color:#D95625"/>
			<stop  offset="0.45" style="stop-color:#E67122"/>
			<stop  offset="0.63" style="stop-color:#F0851F"/>
			<stop  offset="0.81" style="stop-color:#F5901E"/>
			<stop  offset="1" style="stop-color:#F7941D"/>
		</linearGradient>
		<path class="st21" d="M989.6,130.7c0,0-7,1.3-8.2,8.4c0,0-2.3,12.8,5.5,15.4c0,0,8.9,2.5,12.4-2.1c3.9-5.5,3.9-12.8-0.2-18.2
			C996.8,131.4,993.1,130,989.6,130.7z M992.8,153.2c-6.1-0.1-4.1-11.6-4.1-11.6c0.4-3.3,2-6.3,4.6-8.3c0,0,5.6-1.2,6.4,10.5
			C999.7,152.4,992.8,153.2,992.8,153.2L992.8,153.2z"/>
		
			<linearGradient id="SVGID_9_" gradientUnits="userSpaceOnUse" x1="1014.3615" y1="159.4642" x2="1014.0945" y2="196.0401" gradientTransform="matrix(1 0 0 -1 0.25 314)">
			<stop  offset="0" style="stop-color:#BE1E2D"/>
			<stop  offset="9.000000e-02" style="stop-color:#C8342A"/>
			<stop  offset="0.27" style="stop-color:#D95625"/>
			<stop  offset="0.45" style="stop-color:#E67122"/>
			<stop  offset="0.63" style="stop-color:#F0851F"/>
			<stop  offset="0.81" style="stop-color:#F5901E"/>
			<stop  offset="1" style="stop-color:#F7941D"/>
		</linearGradient>
		<path class="st22" d="M1012.2,127.2c-2.8,1.6-5,4.1-6.3,7l1.3,0.6c6.7-10.6,11.7-5.8,11.7-5.8c1.3,1.8,0.6,8.7,0.6,8.7
			c-10.2-0.7-13.2,3.5-13.2,3.5c-5.6,9.9,2.7,13.3,2.7,13.3c3.5,1,7.3,0.4,10.2-1.7l-0.1,2.2h5.6l-1.1-22.3
			C1023.2,123.5,1012.2,127.2,1012.2,127.2z M1019.1,150.3c0,0-9.1,0.3-8.2-5.9c0.9-6.2,8.4-5,8.4-5L1019.1,150.3z"/>
		
			<linearGradient id="SVGID_10_" gradientUnits="userSpaceOnUse" x1="1031.8008" y1="156.9282" x2="1031.4805" y2="201.1234" gradientTransform="matrix(1 0 0 -1 0 314)">
			<stop  offset="0" style="stop-color:#BE1E2D"/>
			<stop  offset="9.000000e-02" style="stop-color:#C8342A"/>
			<stop  offset="0.27" style="stop-color:#D95625"/>
			<stop  offset="0.45" style="stop-color:#E67122"/>
			<stop  offset="0.63" style="stop-color:#F0851F"/>
			<stop  offset="0.81" style="stop-color:#F5901E"/>
			<stop  offset="1" style="stop-color:#F7941D"/>
		</linearGradient>
		<polygon class="st23" points="1039.2,123.1 1023.9,123.9 1023.9,125.4 1029.8,125 1028.5,157.7 1036.3,157.5 1033.6,124.8 
			1039.2,124.6 		"/>
		
			<linearGradient id="SVGID_11_" gradientUnits="userSpaceOnUse" x1="1047.7205" y1="158.2357" x2="1047.4669" y2="192.8366" gradientTransform="matrix(1 0 0 -1 0.25 314)">
			<stop  offset="0" style="stop-color:#BE1E2D"/>
			<stop  offset="9.000000e-02" style="stop-color:#C8342A"/>
			<stop  offset="0.27" style="stop-color:#D95625"/>
			<stop  offset="0.45" style="stop-color:#E67122"/>
			<stop  offset="0.63" style="stop-color:#F0851F"/>
			<stop  offset="0.81" style="stop-color:#F5901E"/>
			<stop  offset="1" style="stop-color:#F7941D"/>
		</linearGradient>
		<path class="st24" d="M1053.6,142.1c-2.7-1.7-5.8-2.7-9-3c0,0-4.5-0.5,1.4-7c1.3-1.1,7.7-2.9,6.9,3.3l1.8-0.4
			c0.5-2.7-1.3-5.3-4.1-5.8c-0.1,0-0.2,0-0.3,0c0,0-7.9-0.9-11.2,4.4c0,0-3.3,7.5,4.3,9.8c0,0,4.5,1,5.6,4.5
			c0.6,1.6-0.8,8.5-5.7,6.6c-1.6-1.1-2.8-2.6-3.6-4.4l-1.3,0.4c0,0,1.3,4.9,5.7,5.7c0,0,9.1,0.7,11.5-3.4
			C1055.8,152.8,1060.5,147.2,1053.6,142.1z"/>
		
			<linearGradient id="SVGID_12_" gradientUnits="userSpaceOnUse" x1="938.5175" y1="88.3135" x2="937.7302" y2="197.2003" gradientTransform="matrix(1 0 0 -1 0.25 314)">
			<stop  offset="0" style="stop-color:#BE1E2D"/>
			<stop  offset="9.000000e-02" style="stop-color:#C8342A"/>
			<stop  offset="0.27" style="stop-color:#D95625"/>
			<stop  offset="0.45" style="stop-color:#E67122"/>
			<stop  offset="0.63" style="stop-color:#F0851F"/>
			<stop  offset="0.81" style="stop-color:#F5901E"/>
			<stop  offset="1" style="stop-color:#F7941D"/>
		</linearGradient>
		<path class="st25" d="M945,178.1c0,0,13-1.1,15.1-13c0,0,3-22.4-16.9-23c-12-0.4-23.9,1.3-35.3,4.9l7.9,79.8c0,0,36,2.7,45.7-6.3
			c0,0,14.1-15,3.2-30.7C964.7,189.9,960.2,182,945,178.1z M916.7,148.6c0,0,4.9-2.9,15.5-0.6c10.1,2.2,10.8,19.2,10.8,19.2
			c-1.3,10.2-20.3,11.8-20.3,11.8L916.7,148.6z M950.6,206.2c-5.6,18.5-17.7,17.4-17.7,17.4l-8.5-39.6c0,0,6.5-3.1,19.2,2.9
			C953.1,194.6,950.6,206.2,950.6,206.2L950.6,206.2z"/>
		
			<linearGradient id="SVGID_13_" gradientUnits="userSpaceOnUse" x1="990.6663" y1="87.3926" x2="990.0792" y2="167.4698" gradientTransform="matrix(1 0 0 -1 0.25 314)">
			<stop  offset="0" style="stop-color:#BE1E2D"/>
			<stop  offset="9.000000e-02" style="stop-color:#C8342A"/>
			<stop  offset="0.27" style="stop-color:#D95625"/>
			<stop  offset="0.45" style="stop-color:#E67122"/>
			<stop  offset="0.63" style="stop-color:#F0851F"/>
			<stop  offset="0.81" style="stop-color:#F5901E"/>
			<stop  offset="1" style="stop-color:#F7941D"/>
		</linearGradient>
		<path class="st26" d="M995,210.9c0,0,1.2,12-9.8,10.1c0,0-10.7-2.2-10.4-8.9l0.4-41.3l-3.7-0.3l0.1,42.7c0,0,0.5,13.2,16.3,14.4
			c0,0,18.1,2.1,19.6-12.6l2.2-49.4l-15.2-0.5L995,210.9z"/>
		
			<linearGradient id="SVGID_14_" gradientUnits="userSpaceOnUse" x1="1079.6128" y1="83.8966" x2="1078.7188" y2="206.9414" gradientTransform="matrix(1 0 0 -1 0 314)">
			<stop  offset="0" style="stop-color:#BE1E2D"/>
			<stop  offset="9.000000e-02" style="stop-color:#C8342A"/>
			<stop  offset="0.27" style="stop-color:#D95625"/>
			<stop  offset="0.45" style="stop-color:#E67122"/>
			<stop  offset="0.63" style="stop-color:#F0851F"/>
			<stop  offset="0.81" style="stop-color:#F5901E"/>
			<stop  offset="1" style="stop-color:#F7941D"/>
		</linearGradient>
		<polygon class="st27" points="1045.5,228.7 1072.8,231.8 1073.8,182 1092,186.4 1094,178.5 1074.1,176 1073.6,142.4 1111.6,148.7 
			1113.1,142 1065.4,135.7 		"/>
		
			<linearGradient id="SVGID_15_" gradientUnits="userSpaceOnUse" x1="1035.3223" y1="67.8839" x2="1034.5083" y2="179.8399" gradientTransform="matrix(1 0 0 -1 0.25 314)">
			<stop  offset="0" style="stop-color:#BE1E2D"/>
			<stop  offset="9.000000e-02" style="stop-color:#C8342A"/>
			<stop  offset="0.27" style="stop-color:#D95625"/>
			<stop  offset="0.45" style="stop-color:#E67122"/>
			<stop  offset="0.63" style="stop-color:#F0851F"/>
			<stop  offset="0.81" style="stop-color:#F5901E"/>
			<stop  offset="1" style="stop-color:#F7941D"/>
		</linearGradient>
		<path class="st28" d="M1039.9,209.2l0.7-5l-11.2,0.6c0,0-5.5-21.4-3-33.1c0,0,1.8-17.2,27.6-2.3l1.6-3.6c0,0-35.8-15.7-37.3,5.5
			c-0.6,8.1-0.3,18.7,0.2,34.4l-3.9-0.2l0.6,3.2l3.5-0.7c0.5,9.8,1.1,37.6,1.1,37.6l17.6,2.1l-7.2-39L1039.9,209.2z"/>
	</g>
</g>
<g id="Layer_3">
	<g>
		<path class="st1" d="M913.5,235.2c1.8-5.2-0.9-11.6-5.9-14c3-0.7,6.4,0.3,8.6,2.5c-0.4-6,0.3-12.1,2.1-17.9c0,6.5,1.9,13,5.3,18.5
			c0.4-2.4,0.9-4.8,1.3-7.2c0.7,5.5,4.2,10.6,9.1,13.3c0.3-1,0.7-2,1-3.1c0.3,4.4,4.7,7.1,8.6,9.1"/>
		<path class="st2" d="M913.5,235.2l0.3-1l0.2-1l0.1-1l0-1l-0.1-1l-0.2-1l-0.3-1l-0.4-0.9l-0.4-0.9l-0.5-0.9l-0.6-0.8l-0.7-0.8
			l-0.7-0.7l-0.8-0.6l-0.8-0.6l-0.9-0.5l-0.7-0.4l0.8-0.2c3.1-0.7,6.6,0.2,8.9,2.5l-0.6,0.3c-0.3-3-0.2-6.1,0.1-9.1
			c0.3-3,1-6,1.9-8.9l0.9-2.9l0,3c0,1.6,0.1,3.2,0.4,4.8c0.1,0.8,0.3,1.6,0.4,2.4c0.2,0.8,0.4,1.6,0.6,2.3c0.9,3.1,2.2,6,3.9,8.8
			l-0.8,0.2l1.4-7.2l0.5-2.4l0.4,2.4l0.2,1l0.2,1l0.3,1l0.3,1c0.2,0.6,0.5,1.3,0.8,1.9c0.3,0.6,0.7,1.2,1,1.8
			c0.4,0.6,0.8,1.1,1.2,1.6c0.4,0.5,0.9,1,1.4,1.5l0.8,0.7l0.8,0.6l0.8,0.6l0.9,0.5l-0.4,0.2l1-3l0.4-1.1l0.1,1.1l0.1,0.8l0.2,0.8
			c0.2,0.5,0.4,1,0.6,1.5c0.5,0.9,1.2,1.8,2,2.5c1.6,1.5,3.5,2.6,5.4,3.6c-2-0.9-3.9-2-5.6-3.4c-0.8-0.7-1.6-1.5-2.2-2.5
			c-0.3-0.5-0.5-1-0.7-1.5c-0.1-0.3-0.1-0.5-0.2-0.8l-0.1-0.8l0.5,0.1l-0.9,3.1l-0.1,0.3l-0.3-0.2l-0.9-0.5l-0.9-0.6l-0.8-0.6
			l-0.8-0.7c-0.5-0.5-1-1-1.5-1.5c-0.5-0.5-0.9-1.1-1.3-1.7c-0.4-0.6-0.8-1.2-1.1-1.8c-0.3-0.6-0.6-1.3-0.9-1.9
			c-0.3-0.7-0.5-1.3-0.7-2l-0.2-1l-0.2-1.1l0.9,0l-1.3,7.2l-0.2,1.2l-0.6-1c-1.7-2.8-3.1-5.8-4-9c-0.2-0.8-0.4-1.6-0.6-2.4
			c-0.2-0.8-0.3-1.6-0.4-2.4c-0.2-1.6-0.4-3.3-0.4-4.9l0.9,0.1c-0.9,2.8-1.5,5.8-1.9,8.7c-0.2,1.5-0.3,3-0.3,4.5c0,1.5,0,3,0.1,4.5
			l0.1,1L916,224c-2.1-2.1-5.3-3.1-8.3-2.5l0.1-0.5l0.9,0.5l0.9,0.6l0.8,0.7l0.7,0.8l0.7,0.8l0.6,0.9l0.5,0.9l0.4,1l0.3,1l0.3,1
			l0.2,1l0.1,1l0,1l-0.1,1l-0.2,1L913.5,235.2z"/>
	</g>
	<g>
		<path class="st1" d="M778.2,285c0.3-1,0.7-2,0.7-3.1s-0.4-2.2-1.2-2.8c1.2,1.1,2.1,2.4,2.8,3.9c0.9-2.5,2.6-4.7,4.8-6.1
			c-0.5,0.9-0.9,1.8-1.1,2.7c-0.3,0.9-0.4,2,0.4,2.6c0.4,0.3,0.9,0.3,1.3,0.2c1.3-0.2,2.3-1.5,2.6-2.8c0.3-1.3,0.1-2.7,0-4
			c0.3,1.2,0.5,2.4,0.8,3.6c0.6,2.5,1.4,5.4,3.8,6.3"/>
		<path class="st2" d="M778.2,285c0.3-1,0.6-2.1,0.6-3.1c0-1-0.5-2.1-1.3-2.6l0.3-0.4c1.2,1.1,2.3,2.4,3,3.9l-0.7,0
			c0.8-2.6,2.6-4.8,4.9-6.4l1.6-1l-0.9,1.7c-0.3,0.5-0.5,1.1-0.8,1.7c-0.2,0.6-0.4,1.2-0.5,1.7c-0.1,0.5,0,1.1,0.3,1.3
			c0.1,0.1,0.4,0.2,0.6,0.2c0.1,0,0.2,0,0.4,0l0.2,0l0.2-0.1c0.5-0.2,0.9-0.5,1.3-1c0.2-0.2,0.3-0.5,0.4-0.7
			c0.1-0.3,0.2-0.5,0.3-0.8c0.1-0.5,0.1-1.2,0.1-1.8c0-0.6-0.1-1.2-0.2-1.8l0.8-0.1c0.4,1.8,0.7,3.7,1.2,5.5
			c0.2,0.9,0.6,1.8,1.1,2.6c0.5,0.8,1.2,1.5,2,1.9c-0.4-0.2-0.9-0.4-1.3-0.7c-0.4-0.3-0.7-0.7-1-1c-0.6-0.8-1-1.7-1.3-2.6
			c-0.3-0.9-0.5-1.8-0.8-2.7l-0.7-2.7l0.8-0.1c0.2,1.2,0.4,2.5,0.1,3.9c-0.3,1.3-1.1,2.7-2.5,3.2l-0.3,0.1l-0.3,0.1
			c-0.2,0-0.4,0-0.6,0c-0.4,0-0.8-0.1-1.2-0.4c-0.3-0.3-0.6-0.7-0.6-1.1c-0.1-0.4-0.1-0.8,0-1.1c0.1-0.7,0.3-1.3,0.6-1.9
			c0.2-0.6,0.5-1.2,0.8-1.8l0.7,0.6c-1.1,0.7-2,1.5-2.8,2.5c-0.4,0.5-0.7,1-1.1,1.6c-0.3,0.5-0.6,1.1-0.8,1.7l-0.3,0.9l-0.4-0.9
			c-0.6-1.4-1.5-2.8-2.6-3.9l0.3-0.4c0.5,0.3,0.8,0.9,1,1.4c0.2,0.5,0.3,1.1,0.2,1.6C779,283,778.6,284,778.2,285z"/>
	</g>
	<g>
		<path class="st1" d="M1040.8,229.6c2-0.9,3.4-2.6,4.5-4.4c2.1-3.5,3.3-7.5,3.4-11.6c0.4,2.9,0.8,5.8,1.9,8.4
			c1.1,2.7,2.9,5.2,5.5,6.4c0.2-1.2,0.6-2.3,1-3.4c0.7,4.4,4.2,8.3,8.5,9.5"/>
		<path class="st2" d="M1040.8,229.6c1.4-0.7,2.6-1.8,3.5-3c0.9-1.2,1.7-2.6,2.3-4c0.6-1.4,1.1-2.9,1.4-4.4c0.3-1.5,0.5-3,0.5-4.6
			l0.4,0c0.4,2.9,0.8,5.7,1.9,8.4c1,2.6,2.8,5.1,5.4,6.3l-0.3,0.2c0.2-1.2,0.6-2.3,1.1-3.4l0.3-0.6l0.1,0.7c0.7,4.4,4,8.2,8.3,9.5
			c-4.4-1.1-7.9-4.9-8.7-9.5l0.4,0c-0.4,1.1-0.7,2.2-1,3.4l-0.1,0.3l-0.3-0.1c-1.3-0.6-2.5-1.6-3.4-2.7c-0.9-1.1-1.7-2.4-2.2-3.8
			c-1.1-2.7-1.5-5.6-1.9-8.5l0.4,0c-0.1,3.1-0.8,6.3-2.1,9.1c-0.7,1.4-1.4,2.8-2.4,4C1043.4,227.9,1042.2,229,1040.8,229.6z"/>
	</g>
	<g>
		<path class="st1" d="M973.2,228.3c1.9-1.7,3.4-3.9,4.1-6.3c1.1,2.2,3,3.9,5.2,4.8c0.9-0.9,1.8-1.9,2.7-2.8c1.5,1.7,3.9,2.5,6.1,2
			s4.1-2.3,4.7-4.4c0.1,1.2,0.2,2.5,0.9,3.6c0.7,1,2,1.7,3.2,1.2c0.5-0.2,0.9-0.7,1.2-1.2c2.5-3.4,4.5-7.2,5.7-11.2
			c-0.4,2.7-0.8,5.5-0.3,8.1c0.5,2.7,2.2,5.3,4.7,6.2"/>
		<path class="st2" d="M973.2,228.3c1.9-1.7,3.3-3.9,4-6.4l0.1-0.3l0.1,0.2c1.1,2.1,3,3.8,5.2,4.7l-0.2,0l2.6-2.8l0.1-0.2l0.1,0.2
			c1.4,1.6,3.8,2.4,5.9,1.9c2.1-0.5,3.9-2.2,4.5-4.3l0.4-1.3l0.1,1.4c0.1,0.9,0.1,1.8,0.4,2.6c0.3,0.8,0.8,1.5,1.6,1.9
			c0.7,0.4,1.6,0.3,2.2-0.3c0.6-0.6,1.1-1.4,1.6-2.1c2-3,3.6-6.2,4.7-9.7l0.4,0.1c-0.4,2.7-0.8,5.4-0.3,8.1c0.2,1.3,0.7,2.6,1.5,3.7
			c0.8,1.1,1.8,2.1,3.1,2.5c-1.3-0.4-2.4-1.4-3.2-2.5c-0.8-1.1-1.4-2.4-1.6-3.8c-0.6-2.7-0.2-5.5,0.2-8.2l0.4,0.1
			c-1,3.5-2.6,6.8-4.7,9.8c-0.5,0.7-1,1.5-1.7,2.2c-0.3,0.3-0.8,0.6-1.3,0.7c-0.5,0.1-1,0-1.5-0.3c-0.9-0.4-1.5-1.3-1.8-2.2
			c-0.3-0.9-0.4-1.8-0.4-2.7l0.5,0c-0.7,2.3-2.6,4.1-4.9,4.6c-2.3,0.5-4.8-0.3-6.3-2.1l0.3,0l-2.7,2.8l-0.1,0.1l-0.1,0
			c-2.3-0.9-4.2-2.7-5.3-4.9l0.2,0C976.7,224.5,975.2,226.7,973.2,228.3z"/>
	</g>
	<g>
		<path class="st1" d="M1017.2,246.1c1.5-1.2,2.4-3.1,2.5-5.1c0.6,1.4,2,2.4,3.4,2.6c0.4,0.1,0.9,0,1.2-0.2c0.4-0.3,0.5-0.9,0.5-1.4
			c0-1.5-0.4-3.1-1.3-4.3c3.1,1.2,5.5,3.9,6.4,7c0.9-1.5,2.7-2.3,4.4-2.2c-1.1,0.2-1.6,1.5-1.3,2.6c0.3,1,1.2,1.8,2.1,2.5
			c1.3,1,2.8,2,4.4,1.8"/>
		<path class="st2" d="M1017.2,246.1c1.4-1.3,2.3-3.2,2.3-5.1l0-1.1l0.5,1c0.4,0.8,1.1,1.5,1.9,1.9c0.4,0.2,0.9,0.3,1.3,0.4
			c0.4,0.1,0.8,0,1-0.3c0.2-0.2,0.2-0.7,0.2-1.1c0-0.5-0.1-0.9-0.2-1.4c-0.2-0.9-0.6-1.8-1.1-2.5l-0.8-1.3l1.4,0.5
			c3.2,1.2,5.7,4,6.6,7.4l-0.9-0.1c1-1.6,3-2.5,4.9-2.3l3.4,0.4l-3.4,0.4c-0.7,0.1-1.2,1-1.1,1.8c0.1,0.8,0.7,1.6,1.4,2.2
			c0.7,0.6,1.4,1.2,2.2,1.7c0.8,0.5,1.7,0.8,2.6,0.8c-0.9,0.1-1.9-0.1-2.8-0.6c-0.9-0.4-1.6-1-2.4-1.6c-0.7-0.6-1.5-1.4-1.7-2.5
			c-0.1-0.5,0-1.1,0.3-1.6c0.2-0.5,0.7-0.9,1.3-1.1l0,0.8c-1.6-0.1-3.2,0.7-4,2.1l-0.6,0.9l-0.3-1c-0.9-3-3.2-5.6-6.1-6.7l0.6-0.7
			c0.6,0.9,1,1.9,1.2,2.9c0.1,0.5,0.1,1,0.1,1.6c0,0.5,0,1.1-0.5,1.7c-0.2,0.3-0.6,0.4-0.9,0.5c-0.3,0-0.6,0-0.9,0
			c-0.5-0.1-1-0.3-1.5-0.5c-0.9-0.5-1.7-1.3-2.1-2.3l0.5-0.1C1019.8,243.1,1018.8,245,1017.2,246.1z"/>
	</g>
</g>
</svg>
